<svg xmlns="http://www.w3.org/2000/svg" xmlns:xlink="http://www.w3.org/1999/xlink" version="1.1" viewBox="0 0 8298 2118" style="background: #111111"><defs joint-selector="defs"></defs><g joint-selector="layers"  transform="matrix(1,0,0,1,0,0)"><g ></g><g ><!--z-index:0--><!--z-index:1--><!--z-index:2--><!--z-index:3--><!--z-index:4--><!--z-index:5--><!--z-index:6--><!--z-index:7--><!--z-index:8--><!--z-index:9--><!--z-index:10--><!--z-index:11--><!--z-index:12--><!--z-index:13--><!--z-index:14--><!--z-index:15--><!--z-index:16--><!--z-index:17--><!--z-index:18--><!--z-index:19--><!--z-index:20--><!--z-index:21--><!--z-index:22--><!--z-index:23--><!--z-index:24--><!--z-index:25--><!--z-index:26--><!--z-index:27--><!--z-index:28--><!--z-index:29--><!--z-index:30--><!--z-index:31--><!--z-index:32--><!--z-index:33--><!--z-index:34--><!--z-index:35--><g   id="j_111"  transform="translate(20,2074)"><g id="v-1522"><text  id="v-1523" font-size="24px" xml:space="preserve" y="0.8em" font-weight="normal" text-anchor="start" fill="#cccccc" pointer-events="none" display="block" font-family="Open Sans, Tahoma, Arial"><tspan dy="0" >miércoles, 22 de abril de 2026, 8:49 p. m. hora estándar de Perú</tspan></text></g></g><!--z-index:36--><g   id="j_110"  transform="translate(20,2040)"><g id="v-1520"><text  id="v-1521" font-size="24px" xml:space="preserve" y="0.8em" font-weight="normal" text-anchor="start" fill="#cccccc" pointer-events="none" display="block" font-family="Open Sans, Tahoma, Arial"><tspan dy="0" >Descomposición interna del Backend según Bounded Contexts.</tspan></text></g></g><!--z-index:37--><g   id="j_109"  transform="translate(20,1994)"><g id="v-1518"><text  id="v-1519" font-size="36px" xml:space="preserve" y="0.8em" font-weight="normal" text-anchor="start" fill="#cccccc" pointer-events="none" display="block" font-family="Open Sans, Tahoma, Arial"><tspan dy="0" >Component View: Buildline Platform - API Application</tspan></text></g></g><!--z-index:38--><g   id="j_112"  transform="translate(6897,1363)" style=""><g  id="v-1530" style="opacity: 1;"><rect  id="v-1531" rx="1" ry="1" stroke-width="2" pointer-events="visiblePainted" fill="#999999" stroke="#8a8a8a" stroke-dasharray="" width="450" height="300"></rect><text  id="v-1532" font-size="33.599999999999994px" xml:space="preserve" y="86.9" font-weight="bold" text-anchor="middle" pointer-events="visible" font-family="Open Sans, Tahoma, Arial" fill="#ffffff" dominant-baseline="hanging" transform="matrix(1,0,0,1,225,0)"><tspan dy="0" >SUNAT / Billing API</tspan></text><text  id="v-1533" font-size="16.799999999999997px" xml:space="preserve" y="128.5" text-anchor="middle" font-family="Open Sans, Tahoma, Arial" fill="#ffffff" dominant-baseline="hanging" transform="matrix(1,0,0,1,225,0)" style="display: block;"><tspan dy="0" >[Software System]</tspan></text><text  id="v-1534" font-size="24px" xml:space="preserve" y="160.3" text-anchor="middle" font-family="Open Sans, Tahoma, Arial" fill="#ffffff" dominant-baseline="hanging" transform="matrix(1,0,0,1,225,0)" style="display: block;"><tspan dy="0" >Validación de facturas electrónicas</tspan><tspan dy="1.2em" x="0" >y cumplimiento tributario.</tspan></text><g  id="v-1535" color="#ffffff" transform="matrix(1,0,0,1,222.5,268)" display="none"><g ></g><g ></g><g ></g><g ></g></g><image  id="v-1536"></image></g></g><!--z-index:39--><g   id="j_113"  transform="translate(7647,1363)" style=""><g  id="v-1540" style="opacity: 1;"><rect  id="v-1541" rx="1" ry="1" stroke-width="2" pointer-events="visiblePainted" fill="#999999" stroke="#8a8a8a" stroke-dasharray="" width="450" height="300"></rect><text  id="v-1542" font-size="33.599999999999994px" xml:space="preserve" y="86.9" font-weight="bold" text-anchor="middle" pointer-events="visible" font-family="Open Sans, Tahoma, Arial" fill="#ffffff" dominant-baseline="hanging" transform="matrix(1,0,0,1,225,0)"><tspan dy="0" >Email Service</tspan></text><text  id="v-1543" font-size="16.799999999999997px" xml:space="preserve" y="128.5" text-anchor="middle" font-family="Open Sans, Tahoma, Arial" fill="#ffffff" dominant-baseline="hanging" transform="matrix(1,0,0,1,225,0)" style="display: block;"><tspan dy="0" >[Software System]</tspan></text><text  id="v-1544" font-size="24px" xml:space="preserve" y="160.3" text-anchor="middle" font-family="Open Sans, Tahoma, Arial" fill="#ffffff" dominant-baseline="hanging" transform="matrix(1,0,0,1,225,0)" style="display: block;"><tspan dy="0" >Servicio de notificaciones y</tspan><tspan dy="1.2em" x="0" >despacho de OCs a proveedores.</tspan></text><g  id="v-1545" color="#ffffff" transform="matrix(1,0,0,1,222.5,268)" display="none"><g ></g><g ></g><g ></g><g ></g></g><image  id="v-1546"></image></g></g><!--z-index:40--><g   id="j_115"  transform="translate(199,143)" style=""><g id="v-1565"><rect  id="v-1566" width="6418" height="1718" rx="0" ry="0" stroke-width="2" pointer-events="none" stroke="#0f5eaa" fill="#111111" stroke-dasharray=""></rect><text  id="v-1567" font-size="33.599999999999994px" xml:space="preserve" y="1679" font-weight="bold" text-anchor="start" pointer-events="visible" font-family="Open Sans, Tahoma, Arial" fill="#ffffff" transform="matrix(1,0,0,1,15,0)"><tspan dy="0" >Buildline Platform</tspan></text><text  id="v-1568" font-size="16.799999999999997px" xml:space="preserve" y="1703" font-weight="normal" text-anchor="start" pointer-events="visible" font-family="Open Sans, Tahoma, Arial" fill="#ffffff" transform="matrix(1,0,0,1,15,0)"><tspan dy="0" >[Software System]</tspan></text><image  id="v-1569" pointer-events="visible"></image></g></g><!--z-index:41--><g   id="j_114"  transform="translate(2489,163)" style=""><g  id="v-1553" style="opacity: 1;"><rect  id="v-1554" rx="10" ry="10" stroke-width="2" pointer-events="visiblePainted" fill="#3c7fc0" stroke="#3c7fc0" stroke-dasharray="" width="450" height="302"></rect><rect  id="v-1555" rx="10" ry="10" stroke-width="0" pointer-events="visiblePainted" fill="#438dd5" stroke="#3c7fc0" width="446" height="260" x="2" y="40"></rect><ellipse  id="v-1562" fill="#438dd5" cx="20" cy="20" rx="10" ry="10"></ellipse><ellipse  id="v-1563" fill="#438dd5" cx="50" cy="20" rx="10" ry="10"></ellipse><ellipse  id="v-1564" fill="#438dd5" cx="80" cy="20" rx="10" ry="10"></ellipse><rect  id="v-1556" rx="10" ry="10" stroke-width="0" pointer-events="visiblePainted" fill="#438dd5" width="340" height="20" x="100" y="10"></rect><text  id="v-1557" font-size="33.599999999999994px" xml:space="preserve" y="106.9" font-weight="bold" text-anchor="middle" pointer-events="visible" font-family="Open Sans, Tahoma, Arial" fill="#ffffff" dominant-baseline="hanging" transform="matrix(1,0,0,1,225,0)"><tspan dy="0" >Single Page Application</tspan></text><text  id="v-1558" font-size="16.799999999999997px" xml:space="preserve" y="148.5" text-anchor="middle" font-family="Open Sans, Tahoma, Arial" fill="#ffffff" dominant-baseline="hanging" transform="matrix(1,0,0,1,225,0)" style="display: block;"><tspan dy="0" >[Container: Angular]</tspan></text><text  id="v-1559" font-size="24px" xml:space="preserve" y="180.3" text-anchor="middle" font-family="Open Sans, Tahoma, Arial" fill="#ffffff" dominant-baseline="hanging" transform="matrix(1,0,0,1,225,0)" style="display: block;"><tspan dy="0" >Interfaz principal para la gestión</tspan><tspan dy="1.2em" x="0" >logística y dashboards.</tspan></text><g  id="v-1560" font-weight="normal" text-anchor="middle" color="#ffffff" transform="matrix(1,0,0,1,222.5,268)" display="none"><g ></g><g ></g><g ></g><g ></g></g><image  id="v-1561"></image></g></g><!--z-index:42--><g   id="j_116"  transform="translate(6147,1363)" style=""><g  id="v-1573" style="opacity: 1;"><path  d="M 0,30 a 225,30 0,0,0 450 0 a 225,30 0,0,0 -450 0 l 0,240 a 225,30 0,0,0 450 0 l 0,-240" id="v-1574" stroke-width="2" pointer-events="visiblePainted" fill="#28a745" stroke="#24963e" stroke-dasharray=""></path><rect  id="v-1575" stroke-width="0" pointer-events="visiblePainted" fill="none" stroke="none" width="450" height="270" x="0" y="30"></rect><text  id="v-1576" font-size="33.599999999999994px" xml:space="preserve" y="101.9" font-weight="bold" text-anchor="middle" pointer-events="visible" font-family="Open Sans, Tahoma, Arial" fill="#ffffff" dominant-baseline="hanging" transform="matrix(1,0,0,1,225,0)"><tspan dy="0" >Database</tspan></text><text  id="v-1577" font-size="16.799999999999997px" xml:space="preserve" y="143.5" text-anchor="middle" font-family="Open Sans, Tahoma, Arial" fill="#ffffff" dominant-baseline="hanging" transform="matrix(1,0,0,1,225,0)" style="display: block;"><tspan dy="0" >[Container: MySQL]</tspan></text><text  id="v-1578" font-size="24px" xml:space="preserve" y="175.3" text-anchor="middle" font-family="Open Sans, Tahoma, Arial" fill="#ffffff" dominant-baseline="hanging" transform="matrix(1,0,0,1,225,0)" style="display: block;"><tspan dy="0" >Persistencia de proyectos,</tspan><tspan dy="1.2em" x="0" >materiales, costos y auditoría.</tspan></text><g  id="v-1579" font-weight="normal" text-anchor="middle" color="#ffffff" transform="matrix(1,0,0,1,222.5,268)" display="none"><g ></g><g ></g><g ></g><g ></g></g><image  id="v-1580"></image></g></g><!--z-index:43--><g   id="j_118"  transform="translate(219,743)" style=""><g id="v-1594"><rect  id="v-1595" width="5740" height="1019" rx="0" ry="0" stroke-width="2" pointer-events="none" stroke="#3c7fc0" fill="#111111" stroke-dasharray=""></rect><text  id="v-1596" font-size="33.599999999999994px" xml:space="preserve" y="980" font-weight="bold" text-anchor="start" pointer-events="visible" font-family="Open Sans, Tahoma, Arial" fill="#ffffff" transform="matrix(1,0,0,1,15,0)"><tspan dy="0" >API Application</tspan></text><text  id="v-1597" font-size="16.799999999999997px" xml:space="preserve" y="1004" font-weight="normal" text-anchor="start" pointer-events="visible" font-family="Open Sans, Tahoma, Arial" fill="#ffffff" transform="matrix(1,0,0,1,15,0)"><tspan dy="0" >[Container]</tspan></text><image  id="v-1598" pointer-events="visible"></image></g></g><!--z-index:44--><g   id="j_117"  transform="translate(3239,763)" style=""><g  id="v-1587" style="opacity: 1;"><rect  id="v-1588" rx="1" ry="1" stroke-width="2" pointer-events="visiblePainted" fill="#85bbf0" stroke="#78a8d8" stroke-dasharray="" width="450" height="300"></rect><text  id="v-1589" font-size="33.599999999999994px" xml:space="preserve" y="86.9" font-weight="bold" text-anchor="middle" pointer-events="visible" font-family="Open Sans, Tahoma, Arial" fill="#000000" dominant-baseline="hanging" transform="matrix(1,0,0,1,225,0)"><tspan dy="0" >IAM Backend</tspan></text><text  id="v-1590" font-size="16.799999999999997px" xml:space="preserve" y="128.5" text-anchor="middle" font-family="Open Sans, Tahoma, Arial" fill="#000000" dominant-baseline="hanging" transform="matrix(1,0,0,1,225,0)" style="display: block;"><tspan dy="0" >[Component: Spring Boot Module]</tspan></text><text  id="v-1591" font-size="24px" xml:space="preserve" y="160.3" text-anchor="middle" font-family="Open Sans, Tahoma, Arial" fill="#000000" dominant-baseline="hanging" transform="matrix(1,0,0,1,225,0)" style="display: block;"><tspan dy="0" >Autenticación, roles y seguridad</tspan><tspan dy="1.2em" x="0" >del sistema.</tspan></text><g  id="v-1592" color="#000000" transform="matrix(1,0,0,1,222.5,268)" display="none"><g ></g><g ></g><g ></g><g ></g></g><image  id="v-1593"></image></g></g><!--z-index:45--><g   id="j_119"  transform="translate(4739,763)" style=""><g  id="v-1608" style="opacity: 1;"><rect  id="v-1609" rx="1" ry="1" stroke-width="2" pointer-events="visiblePainted" fill="#85bbf0" stroke="#78a8d8" stroke-dasharray="" width="450" height="300"></rect><text  id="v-1610" font-size="33.599999999999994px" xml:space="preserve" y="86.9" font-weight="bold" text-anchor="middle" pointer-events="visible" font-family="Open Sans, Tahoma, Arial" fill="#000000" dominant-baseline="hanging" transform="matrix(1,0,0,1,225,0)"><tspan dy="0" >Profiles Backend</tspan></text><text  id="v-1611" font-size="16.799999999999997px" xml:space="preserve" y="128.5" text-anchor="middle" font-family="Open Sans, Tahoma, Arial" fill="#000000" dominant-baseline="hanging" transform="matrix(1,0,0,1,225,0)" style="display: block;"><tspan dy="0" >[Component: Spring Boot Module]</tspan></text><text  id="v-1612" font-size="24px" xml:space="preserve" y="160.3" text-anchor="middle" font-family="Open Sans, Tahoma, Arial" fill="#000000" dominant-baseline="hanging" transform="matrix(1,0,0,1,225,0)" style="display: block;"><tspan dy="0" >Gestión de datos de la MYPE y</tspan><tspan dy="1.2em" x="0" >empleados.</tspan></text><g  id="v-1613" color="#000000" transform="matrix(1,0,0,1,222.5,268)" display="none"><g ></g><g ></g><g ></g><g ></g></g><image  id="v-1614"></image></g></g><!--z-index:46--><g   id="j_120"  transform="translate(989,763)" style=""><g  id="v-1624" style="opacity: 1;"><rect  id="v-1625" rx="1" ry="1" stroke-width="2" pointer-events="visiblePainted" fill="#85bbf0" stroke="#78a8d8" stroke-dasharray="" width="450" height="300"></rect><text  id="v-1626" font-size="33.599999999999994px" xml:space="preserve" y="86.9" font-weight="bold" text-anchor="middle" pointer-events="visible" font-family="Open Sans, Tahoma, Arial" fill="#000000" dominant-baseline="hanging" transform="matrix(1,0,0,1,225,0)"><tspan dy="0" >Requisition Backend</tspan></text><text  id="v-1627" font-size="16.799999999999997px" xml:space="preserve" y="128.5" text-anchor="middle" font-family="Open Sans, Tahoma, Arial" fill="#000000" dominant-baseline="hanging" transform="matrix(1,0,0,1,225,0)" style="display: block;"><tspan dy="0" >[Component: Spring Boot Module]</tspan></text><text  id="v-1628" font-size="24px" xml:space="preserve" y="160.3" text-anchor="middle" font-family="Open Sans, Tahoma, Arial" fill="#000000" dominant-baseline="hanging" transform="matrix(1,0,0,1,225,0)" style="display: block;"><tspan dy="0" >Lógica de solicitudes, evidencias y</tspan><tspan dy="1.2em" x="0" >prioridad de campo.</tspan></text><g  id="v-1629" color="#000000" transform="matrix(1,0,0,1,222.5,268)" display="none"><g ></g><g ></g><g ></g><g ></g></g><image  id="v-1630"></image></g></g><!--z-index:47--><g   id="j_121"  transform="translate(3989,763)" style=""><g  id="v-1640" style="opacity: 1;"><rect  id="v-1641" rx="1" ry="1" stroke-width="2" pointer-events="visiblePainted" fill="#85bbf0" stroke="#78a8d8" stroke-dasharray="" width="450" height="300"></rect><text  id="v-1642" font-size="33.599999999999994px" xml:space="preserve" y="86.9" font-weight="bold" text-anchor="middle" pointer-events="visible" font-family="Open Sans, Tahoma, Arial" fill="#000000" dominant-baseline="hanging" transform="matrix(1,0,0,1,225,0)"><tspan dy="0" >Procurement Backend</tspan></text><text  id="v-1643" font-size="16.799999999999997px" xml:space="preserve" y="128.5" text-anchor="middle" font-family="Open Sans, Tahoma, Arial" fill="#000000" dominant-baseline="hanging" transform="matrix(1,0,0,1,225,0)" style="display: block;"><tspan dy="0" >[Component: Spring Boot Module]</tspan></text><text  id="v-1644" font-size="24px" xml:space="preserve" y="160.3" text-anchor="middle" font-family="Open Sans, Tahoma, Arial" fill="#000000" dominant-baseline="hanging" transform="matrix(1,0,0,1,225,0)" style="display: block;"><tspan dy="0" >Gestión de cotizaciones y órdenes</tspan><tspan dy="1.2em" x="0" >de compra.</tspan></text><g  id="v-1645" color="#000000" transform="matrix(1,0,0,1,222.5,268)" display="none"><g ></g><g ></g><g ></g><g ></g></g><image  id="v-1646"></image></g></g><!--z-index:48--><g   id="j_122"  transform="translate(239,763)" style=""><g  id="v-1656" style="opacity: 1;"><rect  id="v-1657" rx="1" ry="1" stroke-width="2" pointer-events="visiblePainted" fill="#85bbf0" stroke="#78a8d8" stroke-dasharray="" width="450" height="300"></rect><text  id="v-1658" font-size="33.599999999999994px" xml:space="preserve" y="86.9" font-weight="bold" text-anchor="middle" pointer-events="visible" font-family="Open Sans, Tahoma, Arial" fill="#000000" dominant-baseline="hanging" transform="matrix(1,0,0,1,225,0)"><tspan dy="0" >Inventory Backend</tspan></text><text  id="v-1659" font-size="16.799999999999997px" xml:space="preserve" y="128.5" text-anchor="middle" font-family="Open Sans, Tahoma, Arial" fill="#000000" dominant-baseline="hanging" transform="matrix(1,0,0,1,225,0)" style="display: block;"><tspan dy="0" >[Component: Spring Boot Module]</tspan></text><text  id="v-1660" font-size="24px" xml:space="preserve" y="160.3" text-anchor="middle" font-family="Open Sans, Tahoma, Arial" fill="#000000" dominant-baseline="hanging" transform="matrix(1,0,0,1,225,0)" style="display: block;"><tspan dy="0" >Control de stock, mermas y</tspan><tspan dy="1.2em" x="0" >validación Way Match.</tspan></text><g  id="v-1661" color="#000000" transform="matrix(1,0,0,1,222.5,268)" display="none"><g ></g><g ></g><g ></g><g ></g></g><image  id="v-1662"></image></g></g><!--z-index:49--><g   id="j_123"  transform="translate(1739,763)" style=""><g  id="v-1672" style="opacity: 1;"><rect  id="v-1673" rx="1" ry="1" stroke-width="2" pointer-events="visiblePainted" fill="#85bbf0" stroke="#78a8d8" stroke-dasharray="" width="450" height="300"></rect><text  id="v-1674" font-size="33.599999999999994px" xml:space="preserve" y="86.9" font-weight="bold" text-anchor="middle" pointer-events="visible" font-family="Open Sans, Tahoma, Arial" fill="#000000" dominant-baseline="hanging" transform="matrix(1,0,0,1,225,0)"><tspan dy="0" >Suppliers Backend</tspan></text><text  id="v-1675" font-size="16.799999999999997px" xml:space="preserve" y="128.5" text-anchor="middle" font-family="Open Sans, Tahoma, Arial" fill="#000000" dominant-baseline="hanging" transform="matrix(1,0,0,1,225,0)" style="display: block;"><tspan dy="0" >[Component: Spring Boot Module]</tspan></text><text  id="v-1676" font-size="24px" xml:space="preserve" y="160.3" text-anchor="middle" font-family="Open Sans, Tahoma, Arial" fill="#000000" dominant-baseline="hanging" transform="matrix(1,0,0,1,225,0)" style="display: block;"><tspan dy="0" >Directorio y evaluación de</tspan><tspan dy="1.2em" x="0" >proveedores.</tspan></text><g  id="v-1677" color="#000000" transform="matrix(1,0,0,1,222.5,268)" display="none"><g ></g><g ></g><g ></g><g ></g></g><image  id="v-1678"></image></g></g><!--z-index:50--><g   id="j_124"  transform="translate(2489,763)" style=""><g  id="v-1688" style="opacity: 1;"><rect  id="v-1689" rx="1" ry="1" stroke-width="2" pointer-events="visiblePainted" fill="#85bbf0" stroke="#78a8d8" stroke-dasharray="" width="450" height="300"></rect><text  id="v-1690" font-size="33.599999999999994px" xml:space="preserve" y="86.9" font-weight="bold" text-anchor="middle" pointer-events="visible" font-family="Open Sans, Tahoma, Arial" fill="#000000" dominant-baseline="hanging" transform="matrix(1,0,0,1,225,0)"><tspan dy="0" >Analytics Backend</tspan></text><text  id="v-1691" font-size="16.799999999999997px" xml:space="preserve" y="128.5" text-anchor="middle" font-family="Open Sans, Tahoma, Arial" fill="#000000" dominant-baseline="hanging" transform="matrix(1,0,0,1,225,0)" style="display: block;"><tspan dy="0" >[Component: Spring Boot Module]</tspan></text><text  id="v-1692" font-size="24px" xml:space="preserve" y="160.3" text-anchor="middle" font-family="Open Sans, Tahoma, Arial" fill="#000000" dominant-baseline="hanging" transform="matrix(1,0,0,1,225,0)" style="display: block;"><tspan dy="0" >Cálculo de costos reales vs APU y</tspan><tspan dy="1.2em" x="0" >KPIs.</tspan></text><g  id="v-1693" color="#000000" transform="matrix(1,0,0,1,222.5,268)" display="none"><g ></g><g ></g><g ></g><g ></g></g><image  id="v-1694"></image></g></g><!--z-index:51--><g   id="j_125"  transform="translate(5489,763)" style=""><g  id="v-1704" style="opacity: 1;"><rect  id="v-1705" rx="1" ry="1" stroke-width="2" pointer-events="visiblePainted" fill="#85bbf0" stroke="#78a8d8" stroke-dasharray="" width="450" height="300"></rect><text  id="v-1706" font-size="33.599999999999994px" xml:space="preserve" y="66.74000000000001" font-weight="bold" text-anchor="middle" pointer-events="visible" font-family="Open Sans, Tahoma, Arial" fill="#000000" dominant-baseline="hanging" transform="matrix(1,0,0,1,225,0)"><tspan dy="0" >Communication</tspan><tspan dy="1.2em" x="0" >Backend</tspan></text><text  id="v-1707" font-size="16.799999999999997px" xml:space="preserve" y="148.66" text-anchor="middle" font-family="Open Sans, Tahoma, Arial" fill="#000000" dominant-baseline="hanging" transform="matrix(1,0,0,1,225,0)" style="display: block;"><tspan dy="0" >[Component: Spring Boot Module]</tspan></text><text  id="v-1708" font-size="24px" xml:space="preserve" y="180.45999999999998" text-anchor="middle" font-family="Open Sans, Tahoma, Arial" fill="#000000" dominant-baseline="hanging" transform="matrix(1,0,0,1,225,0)" style="display: block;"><tspan dy="0" >Orquestación de alertas y</tspan><tspan dy="1.2em" x="0" >despacho de correos.</tspan></text><g  id="v-1709" color="#000000" transform="matrix(1,0,0,1,222.5,268)" display="none"><g ></g><g ></g><g ></g><g ></g></g><image  id="v-1710"></image></g></g><!--z-index:52--><g   id="j_126"  transform="translate(989,1363)" style=""><g  id="v-1717" style="opacity: 1;"><rect  id="v-1718" rx="1" ry="1" stroke-width="2" pointer-events="visiblePainted" fill="#85bbf0" stroke="#78a8d8" stroke-dasharray="" width="450" height="300"></rect><text  id="v-1719" font-size="33.599999999999994px" xml:space="preserve" y="86.9" font-weight="bold" text-anchor="middle" pointer-events="visible" font-family="Open Sans, Tahoma, Arial" fill="#000000" dominant-baseline="hanging" transform="matrix(1,0,0,1,225,0)"><tspan dy="0" >Shared Backend</tspan></text><text  id="v-1720" font-size="16.799999999999997px" xml:space="preserve" y="128.5" text-anchor="middle" font-family="Open Sans, Tahoma, Arial" fill="#000000" dominant-baseline="hanging" transform="matrix(1,0,0,1,225,0)" style="display: block;"><tspan dy="0" >[Component: Spring Boot Module]</tspan></text><text  id="v-1721" font-size="24px" xml:space="preserve" y="160.3" text-anchor="middle" font-family="Open Sans, Tahoma, Arial" fill="#000000" dominant-baseline="hanging" transform="matrix(1,0,0,1,225,0)" style="display: block;"><tspan dy="0" >Catálogo maestro y utilidades</tspan><tspan dy="1.2em" x="0" >transversales.</tspan></text><g  id="v-1722" color="#000000" transform="matrix(1,0,0,1,222.5,268)" display="none"><g ></g><g ></g><g ></g><g ></g></g><image  id="v-1723"></image></g></g><!--z-index:53--><g   id="j_127" ><path  stroke="#cccccc" d="M 2903 465 L 3276 763" id="v-1736" stroke-width="2" stroke-dasharray="8 8" fill="none" style="opacity: 1;"></path><path  fill="black" stroke="black" d="M 0 0 0 0" transform="matrix(0.7813752534803766,0.624061465921809,-0.624061465921809,0.7813752534803766,2903.070068359375,465)"></path><path  fill="#cccccc" stroke="#cccccc" d="M 20 0 L 0 10 L 20 20 z" id="v-1738" transform="matrix(-0.7813751703815589,-0.6240615699682123,0.6240615699682123,-0.7813751703815589,3269.9493567072586,770.81376681756)" style="opacity: 1;"></path><path  d="M 2903 465 L 3276 763" id="v-1737" fill="none" style="cursor: auto; pointer-events: visiblepainted;"></path><g ><g id="v-1730"  label-idx="0" cursor="move" transform="matrix(1,0,0,1,3089.5,614)" style="cursor: default; opacity: 1;"><rect joint-selector="rect" id="v-1733" fill="#111111" rx="3" ry="3" pointer-events="none" width="157.12840270996094" height="29.330360412597656" transform="matrix(1,0,0,1,-82.1,-14.7)"></rect><text joint-selector="text" id="v-1732" font-size="24px" xml:space="preserve" y="0.8em" fill="#cccccc" text-anchor="middle" pointer-events="none" font-family="Open Sans, Tahoma, Arial" font-weight="normal" transform="matrix(1,0,0,1,0,-11.9)"><tspan dy="0" >Valida acceso</tspan></text></g><g id="v-1731"  label-idx="1" cursor="move" transform="matrix(1,0,0,1,3079.5,626)" style="cursor: default; opacity: 1;"><rect joint-selector="rect" id="v-1735" fill="#ffffff" rx="3" ry="3"  width="0" height="0" transform="matrix(1,0,0,1,0,0)" display="none"></rect><text joint-selector="text" id="v-1734" fill="#000000" font-size="14" text-anchor="middle" pointer-events="none"></text></g></g><g  display="none" style="display: none;"></g><g  id="v-1740" display="none"><g  id="v-1728"><path  end="source" d="M 26 0 L 0 13 L 26 26 z"></path></g><g  id="v-1729"><path  end="target" d="M 26 0 L 0 13 L 26 26 z"></path></g></g><g  id="v-1739" display="none"><g  id="v-1727" transform="translate(2934.2510936136423, 489.96736165379457) "><g  event="remove"><circle r="11"></circle><path transform="scale(.8) translate(-16, -16)" d="M24.778,21.419 19.276,15.917 24.777,10.415 21.949,7.585 16.447,13.087 10.945,7.585 8.117,10.415 13.618,15.917 8.116,21.419 10.946,24.248 16.447,18.746 21.948,24.248z"></path><title>Remove link.</title></g><g  event="link:options"><circle r="11" transform="translate(25)"></circle><path fill="white" transform="scale(.55) translate(29, -16)" d="M31.229,17.736c0.064-0.571,0.104-1.148,0.104-1.736s-0.04-1.166-0.104-1.737l-4.377-1.557c-0.218-0.716-0.504-1.401-0.851-2.05l1.993-4.192c-0.725-0.91-1.549-1.734-2.458-2.459l-4.193,1.994c-0.647-0.347-1.334-0.632-2.049-0.849l-1.558-4.378C17.165,0.708,16.588,0.667,16,0.667s-1.166,0.041-1.737,0.105L12.707,5.15c-0.716,0.217-1.401,0.502-2.05,0.849L6.464,4.005C5.554,4.73,4.73,5.554,4.005,6.464l1.994,4.192c-0.347,0.648-0.632,1.334-0.849,2.05l-4.378,1.557C0.708,14.834,0.667,15.412,0.667,16s0.041,1.165,0.105,1.736l4.378,1.558c0.217,0.715,0.502,1.401,0.849,2.049l-1.994,4.193c0.725,0.909,1.549,1.733,2.459,2.458l4.192-1.993c0.648,0.347,1.334,0.633,2.05,0.851l1.557,4.377c0.571,0.064,1.148,0.104,1.737,0.104c0.588,0,1.165-0.04,1.736-0.104l1.558-4.377c0.715-0.218,1.399-0.504,2.049-0.851l4.193,1.993c0.909-0.725,1.733-1.549,2.458-2.458l-1.993-4.193c0.347-0.647,0.633-1.334,0.851-2.049L31.229,17.736zM16,20.871c-2.69,0-4.872-2.182-4.872-4.871c0-2.69,2.182-4.872,4.872-4.872c2.689,0,4.871,2.182,4.871,4.872C20.871,18.689,18.689,20.871,16,20.871z"></path><title>Link options.</title></g></g></g></g><!--z-index:54--><g   id="j_128" ><path  stroke="#cccccc" d="M 2489 383 L 1599 656 C 1592.3333333333333 658 1586.3333333333333 661 1581 665 L 1435 763" id="v-1754" stroke-width="2" stroke-dasharray="8 8" fill="none" style="opacity: 1;"></path><path  fill="black" stroke="black" d="M 0 0 0 0" transform="matrix(-0.9560542311350695,0.29318988237783916,-0.29318988237783916,-0.9560542311350695,2489,383)"></path><path  fill="#cccccc" stroke="#cccccc" d="M 20 0 L 0 10 L 20 20 z" id="v-1756" transform="matrix(0.8279461870449122,-0.5608075528715633,0.5608075528715633,0.8279461870449122,1429.8519645539604,754.720520396548)" style="opacity: 1;"></path><path  d="M 2489 383 L 1599 656 C 1592.3333333333333 658 1586.3333333333333 661 1581 665 L 1435 763" id="v-1755" fill="none" style="cursor: auto; pointer-events: visiblepainted;"></path><g ><g id="v-1748"  label-idx="0" cursor="move" transform="matrix(1,0,0,1,1950.27783203125,548.2484741210938)" style="cursor: default; opacity: 1;"><rect joint-selector="rect" id="v-1751" fill="#111111" rx="3" ry="3" pointer-events="none" width="183.3421630859375" height="58.13035774230957" transform="matrix(1,0,0,1,-93.7,-29.1)"></rect><text joint-selector="text" id="v-1750" font-size="24px" xml:space="preserve" y="0.8em" fill="#cccccc" text-anchor="middle" pointer-events="none" font-family="Open Sans, Tahoma, Arial" font-weight="normal" transform="matrix(1,0,0,1,0,-26.3)"><tspan dy="0" >Envía</tspan><tspan dy="1.2em" x="0" >requerimientos</tspan></text></g><g id="v-1749"  label-idx="1" cursor="move" transform="matrix(1,0,0,1,1940.27783203125,574.6484985351562)" style="cursor: default; opacity: 1;"><rect joint-selector="rect" id="v-1753" fill="#ffffff" rx="3" ry="3"  width="0" height="0" transform="matrix(1,0,0,1,0,0)" display="none"></rect><text joint-selector="text" id="v-1752" fill="#000000" font-size="14" text-anchor="middle" pointer-events="none"></text></g></g><g  display="none" style="display: none;"><g  transform="translate(1589, 659)" id="v-1988"><circle  idx="0" r="10"></circle><path  idx="0" d="M16,5.333c-7.732,0-14,4.701-14,10.5c0,1.982,0.741,3.833,2.016,5.414L2,25.667l5.613-1.441c2.339,1.317,5.237,2.107,8.387,2.107c7.732,0,14-4.701,14-10.5C30,10.034,23.732,5.333,16,5.333z" transform="translate(5, -33)"></path><path  idx="0" transform="scale(.8) translate(9.5, -37)" d="M24.778,21.419 19.276,15.917 24.777,10.415 21.949,7.585 16.447,13.087 10.945,7.585 8.117,10.415 13.618,15.917 8.116,21.419 10.946,24.248 16.447,18.746 21.948,24.248z"><title>Remove vertex.</title></path></g></g><g  id="v-1758" display="none"><g  id="v-1746"><path  end="source" d="M 26 0 L 0 13 L 26 26 z"></path></g><g  id="v-1747"><path  end="target" d="M 26 0 L 0 13 L 26 26 z"></path></g></g><g  id="v-1757" display="none"><g  id="v-1744" transform="translate(2450.7586347029805, 394.7302165461644) "><g  event="remove"><circle r="11"></circle><path transform="scale(.8) translate(-16, -16)" d="M24.778,21.419 19.276,15.917 24.777,10.415 21.949,7.585 16.447,13.087 10.945,7.585 8.117,10.415 13.618,15.917 8.116,21.419 10.946,24.248 16.447,18.746 21.948,24.248z"></path><title>Remove link.</title></g><g  event="link:options"><circle r="11" transform="translate(25)"></circle><path fill="white" transform="scale(.55) translate(29, -16)" d="M31.229,17.736c0.064-0.571,0.104-1.148,0.104-1.736s-0.04-1.166-0.104-1.737l-4.377-1.557c-0.218-0.716-0.504-1.401-0.851-2.05l1.993-4.192c-0.725-0.91-1.549-1.734-2.458-2.459l-4.193,1.994c-0.647-0.347-1.334-0.632-2.049-0.849l-1.558-4.378C17.165,0.708,16.588,0.667,16,0.667s-1.166,0.041-1.737,0.105L12.707,5.15c-0.716,0.217-1.401,0.502-2.05,0.849L6.464,4.005C5.554,4.73,4.73,5.554,4.005,6.464l1.994,4.192c-0.347,0.648-0.632,1.334-0.849,2.05l-4.378,1.557C0.708,14.834,0.667,15.412,0.667,16s0.041,1.165,0.105,1.736l4.378,1.558c0.217,0.715,0.502,1.401,0.849,2.049l-1.994,4.193c0.725,0.909,1.549,1.733,2.459,2.458l4.192-1.993c0.648,0.347,1.334,0.633,2.05,0.851l1.557,4.377c0.571,0.064,1.148,0.104,1.737,0.104c0.588,0,1.165-0.04,1.736-0.104l1.558-4.377c0.715-0.218,1.399-0.504,2.049-0.851l4.193,1.993c0.909-0.725,1.733-1.549,2.458-2.458l-1.993-4.193c0.347-0.647,0.633-1.334,0.851-2.049L31.229,17.736zM16,20.871c-2.69,0-4.872-2.182-4.872-4.871c0-2.69,2.182-4.872,4.872-4.872c2.689,0,4.871,2.182,4.871,4.872C20.871,18.689,18.689,20.871,16,20.871z"></path><title>Link options.</title></g></g></g></g><!--z-index:55--><g   id="j_129" ><path  stroke="#cccccc" d="M 2939 383 L 3829 656 C 3835.666666666666 658 3841.666666666666 661 3847 665 L 3993 763" id="v-1772" stroke-width="2" stroke-dasharray="8 8" fill="none" style="opacity: 1;"></path><path  fill="black" stroke="black" d="M 0 0 0 0" transform="matrix(0.9560542116147702,0.2931899460309993,-0.2931899460309993,0.9560542116147702,2939,383)"></path><path  fill="#cccccc" stroke="#cccccc" d="M 20 0 L 0 10 L 20 20 z" id="v-1774" transform="matrix(-0.8279461870449122,-0.5608075528715634,0.5608075528715634,-0.8279461870449122,3986.9318843886085,771.2794441374458)" style="opacity: 1;"></path><path  d="M 2939 383 L 3829 656 C 3835.666666666666 658 3841.666666666666 661 3847 665 L 3993 763" id="v-1773" fill="none" style="cursor: auto; pointer-events: visiblepainted;"></path><g ><g id="v-1766"  label-idx="0" cursor="move" transform="matrix(1,0,0,1,3477.72216796875,548.2484741210938)" style="cursor: default; opacity: 1;"><rect joint-selector="rect" id="v-1769" fill="#111111" rx="3" ry="3" pointer-events="none" width="108.92861938476562" height="58.13035774230957" transform="matrix(1,0,0,1,-57.1,-29.1)"></rect><text joint-selector="text" id="v-1768" font-size="24px" xml:space="preserve" y="0.8em" fill="#cccccc" text-anchor="middle" pointer-events="none" font-family="Open Sans, Tahoma, Arial" font-weight="normal" transform="matrix(1,0,0,1,0,-26.3)"><tspan dy="0" >Gestiona</tspan><tspan dy="1.2em" x="0" >compras</tspan></text></g><g id="v-1767"  label-idx="1" cursor="move" transform="matrix(1,0,0,1,3467.72216796875,574.6484985351562)" style="cursor: default; opacity: 1;"><rect joint-selector="rect" id="v-1771" fill="#ffffff" rx="3" ry="3"  width="0" height="0" transform="matrix(1,0,0,1,0,0)" display="none"></rect><text joint-selector="text" id="v-1770" fill="#000000" font-size="14" text-anchor="middle" pointer-events="none"></text></g></g><g  display="none" style="display: none;"><g  transform="translate(3839, 659)" id="v-1989"><circle  idx="0" r="10"></circle><path  idx="0" d="M16,5.333c-7.732,0-14,4.701-14,10.5c0,1.982,0.741,3.833,2.016,5.414L2,25.667l5.613-1.441c2.339,1.317,5.237,2.107,8.387,2.107c7.732,0,14-4.701,14-10.5C30,10.034,23.732,5.333,16,5.333z" transform="translate(5, -33)"></path><path  idx="0" transform="scale(.8) translate(9.5, -37)" d="M24.778,21.419 19.276,15.917 24.777,10.415 21.949,7.585 16.447,13.087 10.945,7.585 8.117,10.415 13.618,15.917 8.116,21.419 10.946,24.248 16.447,18.746 21.948,24.248z"><title>Remove vertex.</title></path></g></g><g  id="v-1776" display="none"><g  id="v-1764"><path  end="source" d="M 26 0 L 0 13 L 26 26 z"></path></g><g  id="v-1765"><path  end="target" d="M 26 0 L 0 13 L 26 26 z"></path></g></g><g  id="v-1775" display="none"><g  id="v-1762" transform="translate(2977.2413652970195, 394.7302165461644) "><g  event="remove"><circle r="11"></circle><path transform="scale(.8) translate(-16, -16)" d="M24.778,21.419 19.276,15.917 24.777,10.415 21.949,7.585 16.447,13.087 10.945,7.585 8.117,10.415 13.618,15.917 8.116,21.419 10.946,24.248 16.447,18.746 21.948,24.248z"></path><title>Remove link.</title></g><g  event="link:options"><circle r="11" transform="translate(25)"></circle><path fill="white" transform="scale(.55) translate(29, -16)" d="M31.229,17.736c0.064-0.571,0.104-1.148,0.104-1.736s-0.04-1.166-0.104-1.737l-4.377-1.557c-0.218-0.716-0.504-1.401-0.851-2.05l1.993-4.192c-0.725-0.91-1.549-1.734-2.458-2.459l-4.193,1.994c-0.647-0.347-1.334-0.632-2.049-0.849l-1.558-4.378C17.165,0.708,16.588,0.667,16,0.667s-1.166,0.041-1.737,0.105L12.707,5.15c-0.716,0.217-1.401,0.502-2.05,0.849L6.464,4.005C5.554,4.73,4.73,5.554,4.005,6.464l1.994,4.192c-0.347,0.648-0.632,1.334-0.849,2.05l-4.378,1.557C0.708,14.834,0.667,15.412,0.667,16s0.041,1.165,0.105,1.736l4.378,1.558c0.217,0.715,0.502,1.401,0.849,2.049l-1.994,4.193c0.725,0.909,1.549,1.733,2.459,2.458l4.192-1.993c0.648,0.347,1.334,0.633,2.05,0.851l1.557,4.377c0.571,0.064,1.148,0.104,1.737,0.104c0.588,0,1.165-0.04,1.736-0.104l1.558-4.377c0.715-0.218,1.399-0.504,2.049-0.851l4.193,1.993c0.909-0.725,1.733-1.549,2.458-2.458l-1.993-4.193c0.347-0.647,0.633-1.334,0.851-2.049L31.229,17.736zM16,20.871c-2.69,0-4.872-2.182-4.872-4.871c0-2.69,2.182-4.872,4.872-4.872c2.689,0,4.871,2.182,4.871,4.872C20.871,18.689,18.689,20.871,16,20.871z"></path><title>Link options.</title></g></g></g></g><!--z-index:56--><g   id="j_130" ><path  stroke="#cccccc" d="M 2489 355 L 849 657 C 842.3333333333333 658.3333333333333 836.3333333333333 661 831 665 L 685 763" id="v-1790" stroke-width="2" stroke-dasharray="8 8" fill="none" style="opacity: 1;"></path><path  fill="black" stroke="black" d="M 0 0 0 0" transform="matrix(-0.9834900470734479,0.18096222618952046,-0.18096222618952046,-0.9834900470734479,2489,355.3999938964844)"></path><path  fill="#cccccc" stroke="#cccccc" d="M 20 0 L 0 10 L 20 20 z" id="v-1792" transform="matrix(0.8279461870449122,-0.5608075528715633,0.5608075528715633,0.8279461870449122,679.8519035188041,754.720520396548)" style="opacity: 1;"></path><path  d="M 2489 355 L 849 657 C 842.3333333333333 658.3333333333333 836.3333333333333 661 831 665 L 685 763" id="v-1791" fill="none" style="cursor: auto; pointer-events: visiblepainted;"></path><g ><g id="v-1784"  label-idx="0" cursor="move" transform="matrix(1,0,0,1,1572.7662353515625,523.7210693359375)" style="cursor: default; opacity: 1;"><rect joint-selector="rect" id="v-1787" fill="#111111" rx="3" ry="3" pointer-events="none" width="145.010986328125" height="58.13035774230957" transform="matrix(1,0,0,1,-74.6,-29.1)"></rect><text joint-selector="text" id="v-1786" font-size="24px" xml:space="preserve" y="0.8em" fill="#cccccc" text-anchor="middle" pointer-events="none" font-family="Open Sans, Tahoma, Arial" font-weight="normal" transform="matrix(1,0,0,1,0,-26.3)"><tspan dy="0" >Reporta</tspan><tspan dy="1.2em" x="0" >recepciones</tspan></text></g><g id="v-1785"  label-idx="1" cursor="move" transform="matrix(1,0,0,1,1562.7662353515625,550.12109375)" style="cursor: default; opacity: 1;"><rect joint-selector="rect" id="v-1789" fill="#ffffff" rx="3" ry="3"  width="0" height="0" transform="matrix(1,0,0,1,0,0)" display="none"></rect><text joint-selector="text" id="v-1788" fill="#000000" font-size="14" text-anchor="middle" pointer-events="none"></text></g></g><g  display="none" style="display: none;"><g  transform="translate(839, 659)" id="v-1990"><circle  idx="0" r="10"></circle><path  idx="0" d="M16,5.333c-7.732,0-14,4.701-14,10.5c0,1.982,0.741,3.833,2.016,5.414L2,25.667l5.613-1.441c2.339,1.317,5.237,2.107,8.387,2.107c7.732,0,14-4.701,14-10.5C30,10.034,23.732,5.333,16,5.333z" transform="translate(5, -33)"></path><path  idx="0" transform="scale(.8) translate(9.5, -37)" d="M24.778,21.419 19.276,15.917 24.777,10.415 21.949,7.585 16.447,13.087 10.945,7.585 8.117,10.415 13.618,15.917 8.116,21.419 10.946,24.248 16.447,18.746 21.948,24.248z"><title>Remove vertex.</title></path></g></g><g  id="v-1794" display="none"><g  id="v-1782"><path  end="source" d="M 26 0 L 0 13 L 26 26 z"></path></g><g  id="v-1783"><path  end="target" d="M 26 0 L 0 13 L 26 26 z"></path></g></g><g  id="v-1793" display="none"><g  id="v-1780" transform="translate(2449.661422676748, 362.2440550924525) "><g  event="remove"><circle r="11"></circle><path transform="scale(.8) translate(-16, -16)" d="M24.778,21.419 19.276,15.917 24.777,10.415 21.949,7.585 16.447,13.087 10.945,7.585 8.117,10.415 13.618,15.917 8.116,21.419 10.946,24.248 16.447,18.746 21.948,24.248z"></path><title>Remove link.</title></g><g  event="link:options"><circle r="11" transform="translate(25)"></circle><path fill="white" transform="scale(.55) translate(29, -16)" d="M31.229,17.736c0.064-0.571,0.104-1.148,0.104-1.736s-0.04-1.166-0.104-1.737l-4.377-1.557c-0.218-0.716-0.504-1.401-0.851-2.05l1.993-4.192c-0.725-0.91-1.549-1.734-2.458-2.459l-4.193,1.994c-0.647-0.347-1.334-0.632-2.049-0.849l-1.558-4.378C17.165,0.708,16.588,0.667,16,0.667s-1.166,0.041-1.737,0.105L12.707,5.15c-0.716,0.217-1.401,0.502-2.05,0.849L6.464,4.005C5.554,4.73,4.73,5.554,4.005,6.464l1.994,4.192c-0.347,0.648-0.632,1.334-0.849,2.05l-4.378,1.557C0.708,14.834,0.667,15.412,0.667,16s0.041,1.165,0.105,1.736l4.378,1.558c0.217,0.715,0.502,1.401,0.849,2.049l-1.994,4.193c0.725,0.909,1.549,1.733,2.459,2.458l4.192-1.993c0.648,0.347,1.334,0.633,2.05,0.851l1.557,4.377c0.571,0.064,1.148,0.104,1.737,0.104c0.588,0,1.165-0.04,1.736-0.104l1.558-4.377c0.715-0.218,1.399-0.504,2.049-0.851l4.193,1.993c0.909-0.725,1.733-1.549,2.458-2.458l-1.993-4.193c0.347-0.647,0.633-1.334,0.851-2.049L31.229,17.736zM16,20.871c-2.69,0-4.872-2.182-4.872-4.871c0-2.69,2.182-4.872,4.872-4.872c2.689,0,4.871,2.182,4.871,4.872C20.871,18.689,18.689,20.871,16,20.871z"></path><title>Link options.</title></g></g></g></g><!--z-index:57--><g   id="j_131" ><path  stroke="#cccccc" d="M 2714 465 L 2714 763" id="v-1807" stroke-width="2" stroke-dasharray="8 8" fill="none" style="opacity: 1;"></path><path  fill="black" stroke="black" d="M 0 0 0 0" transform="matrix(6.123233995736766e-17,1,-1,6.123233995736766e-17,2714,465)"></path><path  fill="#cccccc" stroke="#cccccc" d="M 20 0 L 0 10 L 20 20 z" id="v-1809" transform="matrix(-1.8369701987210297e-16,-1,1,-1.8369701987210297e-16,2704.0000000000005,763)" style="opacity: 1;"></path><path  d="M 2714 465 L 2714 763" id="v-1808" fill="none" style="cursor: auto; pointer-events: visiblepainted;"></path><g ><g id="v-1801"  label-idx="0" cursor="move" transform="matrix(1,0,0,1,2714,614)" style="cursor: default; opacity: 1;"><rect joint-selector="rect" id="v-1804" fill="#111111" rx="3" ry="3" pointer-events="none" width="191.4788818359375" height="29.330360412597656" transform="matrix(1,0,0,1,-97.8,-14.7)"></rect><text joint-selector="text" id="v-1803" font-size="24px" xml:space="preserve" y="0.8em" fill="#cccccc" text-anchor="middle" pointer-events="none" font-family="Open Sans, Tahoma, Arial" font-weight="normal" transform="matrix(1,0,0,1,0,-11.9)"><tspan dy="0" >Solicita reportes</tspan></text></g><g id="v-1802"  label-idx="1" cursor="move" transform="matrix(1,0,0,1,2704,626)" style="cursor: default; opacity: 1;"><rect joint-selector="rect" id="v-1806" fill="#ffffff" rx="3" ry="3"  width="0" height="0" transform="matrix(1,0,0,1,0,0)" display="none"></rect><text joint-selector="text" id="v-1805" fill="#000000" font-size="14" text-anchor="middle" pointer-events="none"></text></g></g><g  display="none" style="display: none;"></g><g  id="v-1811" display="none"><g  id="v-1799"><path  end="source" d="M 26 0 L 0 13 L 26 26 z"></path></g><g  id="v-1800"><path  end="target" d="M 26 0 L 0 13 L 26 26 z"></path></g></g><g  id="v-1810" display="none"><g  id="v-1798" transform="translate(2714, 505) "><g  event="remove"><circle r="11"></circle><path transform="scale(.8) translate(-16, -16)" d="M24.778,21.419 19.276,15.917 24.777,10.415 21.949,7.585 16.447,13.087 10.945,7.585 8.117,10.415 13.618,15.917 8.116,21.419 10.946,24.248 16.447,18.746 21.948,24.248z"></path><title>Remove link.</title></g><g  event="link:options"><circle r="11" transform="translate(25)"></circle><path fill="white" transform="scale(.55) translate(29, -16)" d="M31.229,17.736c0.064-0.571,0.104-1.148,0.104-1.736s-0.04-1.166-0.104-1.737l-4.377-1.557c-0.218-0.716-0.504-1.401-0.851-2.05l1.993-4.192c-0.725-0.91-1.549-1.734-2.458-2.459l-4.193,1.994c-0.647-0.347-1.334-0.632-2.049-0.849l-1.558-4.378C17.165,0.708,16.588,0.667,16,0.667s-1.166,0.041-1.737,0.105L12.707,5.15c-0.716,0.217-1.401,0.502-2.05,0.849L6.464,4.005C5.554,4.73,4.73,5.554,4.005,6.464l1.994,4.192c-0.347,0.648-0.632,1.334-0.849,2.05l-4.378,1.557C0.708,14.834,0.667,15.412,0.667,16s0.041,1.165,0.105,1.736l4.378,1.558c0.217,0.715,0.502,1.401,0.849,2.049l-1.994,4.193c0.725,0.909,1.549,1.733,2.459,2.458l4.192-1.993c0.648,0.347,1.334,0.633,2.05,0.851l1.557,4.377c0.571,0.064,1.148,0.104,1.737,0.104c0.588,0,1.165-0.04,1.736-0.104l1.558-4.377c0.715-0.218,1.399-0.504,2.049-0.851l4.193,1.993c0.909-0.725,1.733-1.549,2.458-2.458l-1.993-4.193c0.347-0.647,0.633-1.334,0.851-2.049L31.229,17.736zM16,20.871c-2.69,0-4.872-2.182-4.872-4.871c0-2.69,2.182-4.872,4.872-4.872c2.689,0,4.871,2.182,4.871,4.872C20.871,18.689,18.689,20.871,16,20.871z"></path><title>Link options.</title></g></g></g></g><!--z-index:58--><g   id="j_132" ><path  stroke="#cccccc" d="M 3689 1003 L 3830 1059 C 3835.9999999999995 1061.6666666666665 3842.333333333333 1063.6666666666665 3849 1065 L 6147 1473" id="v-1825" stroke-width="2" stroke-dasharray="8 8" fill="none" style="opacity: 1;"></path><path  fill="black" stroke="black" d="M 0 0 0 0" transform="matrix(0.9284766955435519,0.371390664708372,-0.371390664708372,0.9284766955435519,3689,1003)"></path><path  fill="#cccccc" stroke="#cccccc" d="M 20 0 L 0 10 L 20 20 z" id="v-1827" transform="matrix(-0.9845831542703938,-0.17491715846926528,0.17491715846926528,-0.9845831542703938,6145.2509568330115,1482.875886916459)" style="opacity: 1;"></path><path  d="M 3689 1003 L 3830 1059 C 3835.9999999999995 1061.6666666666665 3842.333333333333 1063.6666666666665 3849 1065 L 6147 1473" id="v-1826" fill="none" style="cursor: auto; pointer-events: visiblepainted;"></path><g ><g id="v-1819"  label-idx="0" cursor="move" transform="matrix(1,0,0,1,4913.4833984375,1253.9945068359375)" style="cursor: default; opacity: 1;"><rect joint-selector="rect" id="v-1822" fill="#111111" rx="3" ry="3" pointer-events="none" width="193.9340057373047" height="29.330360412597656" transform="matrix(1,0,0,1,-95.4,-14.7)"></rect><text joint-selector="text" id="v-1821" font-size="24px" xml:space="preserve" y="0.8em" fill="#cccccc" text-anchor="middle" pointer-events="none" font-family="Open Sans, Tahoma, Arial" font-weight="normal" transform="matrix(1,0,0,1,0,-11.9)"><tspan dy="0" >Persiste usuarios</tspan></text></g><g id="v-1820"  label-idx="1" cursor="move" transform="matrix(1,0,0,1,4903.4833984375,1265.9945068359375)" style="cursor: default; opacity: 1;"><rect joint-selector="rect" id="v-1824" fill="#ffffff" rx="3" ry="3"  width="0" height="0" transform="matrix(1,0,0,1,0,0)" display="none"></rect><text joint-selector="text" id="v-1823" fill="#000000" font-size="14" text-anchor="middle" pointer-events="none"></text></g></g><g  display="none" style="display: none;"><g  transform="translate(3839, 1063)" id="v-1991"><circle  idx="0" r="10"></circle><path  idx="0" d="M16,5.333c-7.732,0-14,4.701-14,10.5c0,1.982,0.741,3.833,2.016,5.414L2,25.667l5.613-1.441c2.339,1.317,5.237,2.107,8.387,2.107c7.732,0,14-4.701,14-10.5C30,10.034,23.732,5.333,16,5.333z" transform="translate(5, -33)"></path><path  idx="0" transform="scale(.8) translate(9.5, -37)" d="M24.778,21.419 19.276,15.917 24.777,10.415 21.949,7.585 16.447,13.087 10.945,7.585 8.117,10.415 13.618,15.917 8.116,21.419 10.946,24.248 16.447,18.746 21.948,24.248z"><title>Remove vertex.</title></path></g></g><g  id="v-1829" display="none"><g  id="v-1817"><path  end="source" d="M 26 0 L 0 13 L 26 26 z"></path></g><g  id="v-1818"><path  end="target" d="M 26 0 L 0 13 L 26 26 z"></path></g></g><g  id="v-1828" display="none"><g  id="v-1815" transform="translate(3726.175322531106, 1017.7646671045526) "><g  event="remove"><circle r="11"></circle><path transform="scale(.8) translate(-16, -16)" d="M24.778,21.419 19.276,15.917 24.777,10.415 21.949,7.585 16.447,13.087 10.945,7.585 8.117,10.415 13.618,15.917 8.116,21.419 10.946,24.248 16.447,18.746 21.948,24.248z"></path><title>Remove link.</title></g><g  event="link:options"><circle r="11" transform="translate(25)"></circle><path fill="white" transform="scale(.55) translate(29, -16)" d="M31.229,17.736c0.064-0.571,0.104-1.148,0.104-1.736s-0.04-1.166-0.104-1.737l-4.377-1.557c-0.218-0.716-0.504-1.401-0.851-2.05l1.993-4.192c-0.725-0.91-1.549-1.734-2.458-2.459l-4.193,1.994c-0.647-0.347-1.334-0.632-2.049-0.849l-1.558-4.378C17.165,0.708,16.588,0.667,16,0.667s-1.166,0.041-1.737,0.105L12.707,5.15c-0.716,0.217-1.401,0.502-2.05,0.849L6.464,4.005C5.554,4.73,4.73,5.554,4.005,6.464l1.994,4.192c-0.347,0.648-0.632,1.334-0.849,2.05l-4.378,1.557C0.708,14.834,0.667,15.412,0.667,16s0.041,1.165,0.105,1.736l4.378,1.558c0.217,0.715,0.502,1.401,0.849,2.049l-1.994,4.193c0.725,0.909,1.549,1.733,2.459,2.458l4.192-1.993c0.648,0.347,1.334,0.633,2.05,0.851l1.557,4.377c0.571,0.064,1.148,0.104,1.737,0.104c0.588,0,1.165-0.04,1.736-0.104l1.558-4.377c0.715-0.218,1.399-0.504,2.049-0.851l4.193,1.993c0.909-0.725,1.733-1.549,2.458-2.458l-1.993-4.193c0.347-0.647,0.633-1.334,0.851-2.049L31.229,17.736zM16,20.871c-2.69,0-4.872-2.182-4.872-4.871c0-2.69,2.182-4.872,4.872-4.872c2.689,0,4.871,2.182,4.871,4.872C20.871,18.689,18.689,20.871,16,20.871z"></path><title>Link options.</title></g></g></g></g><!--z-index:59--><g   id="j_133" ><path  stroke="#cccccc" d="M 1439 1003 L 1580 1059 C 1586 1061.6666666666665 1592.3333333333333 1063.3333333333333 1599 1064 L 6147 1492" id="v-1843" stroke-width="2" stroke-dasharray="8 8" fill="none" style="opacity: 1;"></path><path  fill="black" stroke="black" d="M 0 0 0 0" transform="matrix(0.9284766955435519,0.371390664708372,-0.371390664708372,0.9284766955435519,1439,1003)"></path><path  fill="#cccccc" stroke="#cccccc" d="M 20 0 L 0 10 L 20 20 z" id="v-1845" transform="matrix(-0.9956033564159279,-0.09366940105145809,0.09366940105145809,-0.9956033564159279,6146.063284866144,1501.7860381215487)" style="opacity: 1;"></path><path  d="M 1439 1003 L 1580 1059 C 1586 1061.6666666666665 1592.3333333333333 1063.3333333333333 1599 1064 L 6147 1492" id="v-1844" fill="none" style="cursor: auto; pointer-events: visiblepainted;"></path><g ><g id="v-1837"  label-idx="0" cursor="move" transform="matrix(1,0,0,1,3787.657470703125,1269.9686279296875)" style="cursor: default; opacity: 1;"><rect joint-selector="rect" id="v-1840" fill="#111111" rx="3" ry="3" pointer-events="none" width="128.8775177001953" height="58.13035774230957" transform="matrix(1,0,0,1,-66.5,-29.1)"></rect><text joint-selector="text" id="v-1839" font-size="24px" xml:space="preserve" y="0.8em" fill="#cccccc" text-anchor="middle" pointer-events="none" font-family="Open Sans, Tahoma, Arial" font-weight="normal" transform="matrix(1,0,0,1,0,-26.3)"><tspan dy="0" >Persiste</tspan><tspan dy="1.2em" x="0" >solicitudes</tspan></text></g><g id="v-1838"  label-idx="1" cursor="move" transform="matrix(1,0,0,1,3777.657470703125,1296.36865234375)" style="cursor: default; opacity: 1;"><rect joint-selector="rect" id="v-1842" fill="#ffffff" rx="3" ry="3"  width="0" height="0" transform="matrix(1,0,0,1,0,0)" display="none"></rect><text joint-selector="text" id="v-1841" fill="#000000" font-size="14" text-anchor="middle" pointer-events="none"></text></g></g><g  display="none" style="display: none;"><g  transform="translate(1589, 1063)" id="v-1992"><circle  idx="0" r="10"></circle><path  idx="0" d="M16,5.333c-7.732,0-14,4.701-14,10.5c0,1.982,0.741,3.833,2.016,5.414L2,25.667l5.613-1.441c2.339,1.317,5.237,2.107,8.387,2.107c7.732,0,14-4.701,14-10.5C30,10.034,23.732,5.333,16,5.333z" transform="translate(5, -33)"></path><path  idx="0" transform="scale(.8) translate(9.5, -37)" d="M24.778,21.419 19.276,15.917 24.777,10.415 21.949,7.585 16.447,13.087 10.945,7.585 8.117,10.415 13.618,15.917 8.116,21.419 10.946,24.248 16.447,18.746 21.948,24.248z"><title>Remove vertex.</title></path></g></g><g  id="v-1847" display="none"><g  id="v-1835"><path  end="source" d="M 26 0 L 0 13 L 26 26 z"></path></g><g  id="v-1836"><path  end="target" d="M 26 0 L 0 13 L 26 26 z"></path></g></g><g  id="v-1846" display="none"><g  id="v-1833" transform="translate(1476.1753225311058, 1017.7646671045526) "><g  event="remove"><circle r="11"></circle><path transform="scale(.8) translate(-16, -16)" d="M24.778,21.419 19.276,15.917 24.777,10.415 21.949,7.585 16.447,13.087 10.945,7.585 8.117,10.415 13.618,15.917 8.116,21.419 10.946,24.248 16.447,18.746 21.948,24.248z"></path><title>Remove link.</title></g><g  event="link:options"><circle r="11" transform="translate(25)"></circle><path fill="white" transform="scale(.55) translate(29, -16)" d="M31.229,17.736c0.064-0.571,0.104-1.148,0.104-1.736s-0.04-1.166-0.104-1.737l-4.377-1.557c-0.218-0.716-0.504-1.401-0.851-2.05l1.993-4.192c-0.725-0.91-1.549-1.734-2.458-2.459l-4.193,1.994c-0.647-0.347-1.334-0.632-2.049-0.849l-1.558-4.378C17.165,0.708,16.588,0.667,16,0.667s-1.166,0.041-1.737,0.105L12.707,5.15c-0.716,0.217-1.401,0.502-2.05,0.849L6.464,4.005C5.554,4.73,4.73,5.554,4.005,6.464l1.994,4.192c-0.347,0.648-0.632,1.334-0.849,2.05l-4.378,1.557C0.708,14.834,0.667,15.412,0.667,16s0.041,1.165,0.105,1.736l4.378,1.558c0.217,0.715,0.502,1.401,0.849,2.049l-1.994,4.193c0.725,0.909,1.549,1.733,2.459,2.458l4.192-1.993c0.648,0.347,1.334,0.633,2.05,0.851l1.557,4.377c0.571,0.064,1.148,0.104,1.737,0.104c0.588,0,1.165-0.04,1.736-0.104l1.558-4.377c0.715-0.218,1.399-0.504,2.049-0.851l4.193,1.993c0.909-0.725,1.733-1.549,2.458-2.458l-1.993-4.193c0.347-0.647,0.633-1.334,0.851-2.049L31.229,17.736zM16,20.871c-2.69,0-4.872-2.182-4.872-4.871c0-2.69,2.182-4.872,4.872-4.872c2.689,0,4.871,2.182,4.871,4.872C20.871,18.689,18.689,20.871,16,20.871z"></path><title>Link options.</title></g></g></g></g><!--z-index:60--><g   id="j_134" ><path  stroke="#cccccc" d="M 4439 1003 L 4580 1059 C 4586 1061.6666666666665 4592.333333333333 1063.6666666666665 4599 1065 L 6147 1456" id="v-1861" stroke-width="2" stroke-dasharray="8 8" fill="none" style="opacity: 1;"></path><path  fill="black" stroke="black" d="M 0 0 0 0" transform="matrix(0.9284766955435519,0.371390664708372,-0.371390664708372,0.9284766955435519,4439,1003)"></path><path  fill="#cccccc" stroke="#cccccc" d="M 20 0 L 0 10 L 20 20 z" id="v-1863" transform="matrix(-0.969596807045563,-0.2447080541523905,0.2447080541523905,-0.969596807045563,6144.553086747682,1465.9059880651043)" style="opacity: 1;"></path><path  d="M 4439 1003 L 4580 1059 C 4586 1061.6666666666665 4592.333333333333 1063.6666666666665 4599 1065 L 6147 1456" id="v-1862" fill="none" style="cursor: auto; pointer-events: visiblepainted;"></path><g ><g id="v-1855"  label-idx="0" cursor="move" transform="matrix(1,0,0,1,5289.775390625,1239.478759765625)" style="cursor: default; opacity: 1;"><rect joint-selector="rect" id="v-1858" fill="#111111" rx="3" ry="3" pointer-events="none" width="143.2513427734375" height="29.330360412597656" transform="matrix(1,0,0,1,-70.1,-14.7)"></rect><text joint-selector="text" id="v-1857" font-size="24px" xml:space="preserve" y="0.8em" fill="#cccccc" text-anchor="middle" pointer-events="none" font-family="Open Sans, Tahoma, Arial" font-weight="normal" transform="matrix(1,0,0,1,0,-11.9)"><tspan dy="0" >Persiste OCs</tspan></text></g><g id="v-1856"  label-idx="1" cursor="move" transform="matrix(1,0,0,1,5279.775390625,1251.478759765625)" style="cursor: default; opacity: 1;"><rect joint-selector="rect" id="v-1860" fill="#ffffff" rx="3" ry="3"  width="0" height="0" transform="matrix(1,0,0,1,0,0)" display="none"></rect><text joint-selector="text" id="v-1859" fill="#000000" font-size="14" text-anchor="middle" pointer-events="none"></text></g></g><g  display="none" style="display: none;"><g  transform="translate(4589, 1063)" id="v-1993"><circle  idx="0" r="10"></circle><path  idx="0" d="M16,5.333c-7.732,0-14,4.701-14,10.5c0,1.982,0.741,3.833,2.016,5.414L2,25.667l5.613-1.441c2.339,1.317,5.237,2.107,8.387,2.107c7.732,0,14-4.701,14-10.5C30,10.034,23.732,5.333,16,5.333z" transform="translate(5, -33)"></path><path  idx="0" transform="scale(.8) translate(9.5, -37)" d="M24.778,21.419 19.276,15.917 24.777,10.415 21.949,7.585 16.447,13.087 10.945,7.585 8.117,10.415 13.618,15.917 8.116,21.419 10.946,24.248 16.447,18.746 21.948,24.248z"><title>Remove vertex.</title></path></g></g><g  id="v-1865" display="none"><g  id="v-1853"><path  end="source" d="M 26 0 L 0 13 L 26 26 z"></path></g><g  id="v-1854"><path  end="target" d="M 26 0 L 0 13 L 26 26 z"></path></g></g><g  id="v-1864" display="none"><g  id="v-1851" transform="translate(4476.175322531106, 1017.7646671045526) "><g  event="remove"><circle r="11"></circle><path transform="scale(.8) translate(-16, -16)" d="M24.778,21.419 19.276,15.917 24.777,10.415 21.949,7.585 16.447,13.087 10.945,7.585 8.117,10.415 13.618,15.917 8.116,21.419 10.946,24.248 16.447,18.746 21.948,24.248z"></path><title>Remove link.</title></g><g  event="link:options"><circle r="11" transform="translate(25)"></circle><path fill="white" transform="scale(.55) translate(29, -16)" d="M31.229,17.736c0.064-0.571,0.104-1.148,0.104-1.736s-0.04-1.166-0.104-1.737l-4.377-1.557c-0.218-0.716-0.504-1.401-0.851-2.05l1.993-4.192c-0.725-0.91-1.549-1.734-2.458-2.459l-4.193,1.994c-0.647-0.347-1.334-0.632-2.049-0.849l-1.558-4.378C17.165,0.708,16.588,0.667,16,0.667s-1.166,0.041-1.737,0.105L12.707,5.15c-0.716,0.217-1.401,0.502-2.05,0.849L6.464,4.005C5.554,4.73,4.73,5.554,4.005,6.464l1.994,4.192c-0.347,0.648-0.632,1.334-0.849,2.05l-4.378,1.557C0.708,14.834,0.667,15.412,0.667,16s0.041,1.165,0.105,1.736l4.378,1.558c0.217,0.715,0.502,1.401,0.849,2.049l-1.994,4.193c0.725,0.909,1.549,1.733,2.459,2.458l4.192-1.993c0.648,0.347,1.334,0.633,2.05,0.851l1.557,4.377c0.571,0.064,1.148,0.104,1.737,0.104c0.588,0,1.165-0.04,1.736-0.104l1.558-4.377c0.715-0.218,1.399-0.504,2.049-0.851l4.193,1.993c0.909-0.725,1.733-1.549,2.458-2.458l-1.993-4.193c0.347-0.647,0.633-1.334,0.851-2.049L31.229,17.736zM16,20.871c-2.69,0-4.872-2.182-4.872-4.871c0-2.69,2.182-4.872,4.872-4.872c2.689,0,4.871,2.182,4.871,4.872C20.871,18.689,18.689,20.871,16,20.871z"></path><title>Link options.</title></g></g></g></g><!--z-index:61--><g   id="j_135" ><path  stroke="#cccccc" d="M 689 1003 L 830 1059 C 835.9999999999999 1061.6666666666665 842.3333333333333 1063.3333333333333 849 1064 L 6147 1495" id="v-1879" stroke-width="2" stroke-dasharray="8 8" fill="none" style="opacity: 1;"></path><path  fill="black" stroke="black" d="M 0 0 0 0" transform="matrix(0.9284766955435519,0.371390664708372,-0.371390664708372,0.9284766955435519,689,1003)"></path><path  fill="#cccccc" stroke="#cccccc" d="M 20 0 L 0 10 L 20 20 z" id="v-1881" transform="matrix(-0.9967090173402057,-0.0810625360614978,0.0810625360614978,-0.9967090173402057,6146.189179656537,1504.6671198308918)" style="opacity: 1;"></path><path  d="M 689 1003 L 830 1059 C 835.9999999999999 1061.6666666666665 842.3333333333333 1063.3333333333333 849 1064 L 6147 1495" id="v-1880" fill="none" style="cursor: auto; pointer-events: visiblepainted;"></path><g ><g id="v-1873"  label-idx="0" cursor="move" transform="matrix(1,0,0,1,3412.5625,1272.549560546875)" style="cursor: default; opacity: 1;"><rect joint-selector="rect" id="v-1876" fill="#111111" rx="3" ry="3" pointer-events="none" width="173.99920654296875" height="29.330360412597656" transform="matrix(1,0,0,1,-89.7,-14.7)"></rect><text joint-selector="text" id="v-1875" font-size="24px" xml:space="preserve" y="0.8em" fill="#cccccc" text-anchor="middle" pointer-events="none" font-family="Open Sans, Tahoma, Arial" font-weight="normal" transform="matrix(1,0,0,1,0,-11.9)"><tspan dy="0" >Actualiza stock</tspan></text></g><g id="v-1874"  label-idx="1" cursor="move" transform="matrix(1,0,0,1,3402.5625,1284.549560546875)" style="cursor: default; opacity: 1;"><rect joint-selector="rect" id="v-1878" fill="#ffffff" rx="3" ry="3"  width="0" height="0" transform="matrix(1,0,0,1,0,0)" display="none"></rect><text joint-selector="text" id="v-1877" fill="#000000" font-size="14" text-anchor="middle" pointer-events="none"></text></g></g><g  display="none" style="display: none;"><g  transform="translate(839, 1063)" id="v-1994"><circle  idx="0" r="10"></circle><path  idx="0" d="M16,5.333c-7.732,0-14,4.701-14,10.5c0,1.982,0.741,3.833,2.016,5.414L2,25.667l5.613-1.441c2.339,1.317,5.237,2.107,8.387,2.107c7.732,0,14-4.701,14-10.5C30,10.034,23.732,5.333,16,5.333z" transform="translate(5, -33)"></path><path  idx="0" transform="scale(.8) translate(9.5, -37)" d="M24.778,21.419 19.276,15.917 24.777,10.415 21.949,7.585 16.447,13.087 10.945,7.585 8.117,10.415 13.618,15.917 8.116,21.419 10.946,24.248 16.447,18.746 21.948,24.248z"><title>Remove vertex.</title></path></g></g><g  id="v-1883" display="none"><g  id="v-1871"><path  end="source" d="M 26 0 L 0 13 L 26 26 z"></path></g><g  id="v-1872"><path  end="target" d="M 26 0 L 0 13 L 26 26 z"></path></g></g><g  id="v-1882" display="none"><g  id="v-1869" transform="translate(726.1753225311058, 1017.7646671045526) "><g  event="remove"><circle r="11"></circle><path transform="scale(.8) translate(-16, -16)" d="M24.778,21.419 19.276,15.917 24.777,10.415 21.949,7.585 16.447,13.087 10.945,7.585 8.117,10.415 13.618,15.917 8.116,21.419 10.946,24.248 16.447,18.746 21.948,24.248z"></path><title>Remove link.</title></g><g  event="link:options"><circle r="11" transform="translate(25)"></circle><path fill="white" transform="scale(.55) translate(29, -16)" d="M31.229,17.736c0.064-0.571,0.104-1.148,0.104-1.736s-0.04-1.166-0.104-1.737l-4.377-1.557c-0.218-0.716-0.504-1.401-0.851-2.05l1.993-4.192c-0.725-0.91-1.549-1.734-2.458-2.459l-4.193,1.994c-0.647-0.347-1.334-0.632-2.049-0.849l-1.558-4.378C17.165,0.708,16.588,0.667,16,0.667s-1.166,0.041-1.737,0.105L12.707,5.15c-0.716,0.217-1.401,0.502-2.05,0.849L6.464,4.005C5.554,4.73,4.73,5.554,4.005,6.464l1.994,4.192c-0.347,0.648-0.632,1.334-0.849,2.05l-4.378,1.557C0.708,14.834,0.667,15.412,0.667,16s0.041,1.165,0.105,1.736l4.378,1.558c0.217,0.715,0.502,1.401,0.849,2.049l-1.994,4.193c0.725,0.909,1.549,1.733,2.459,2.458l4.192-1.993c0.648,0.347,1.334,0.633,2.05,0.851l1.557,4.377c0.571,0.064,1.148,0.104,1.737,0.104c0.588,0,1.165-0.04,1.736-0.104l1.558-4.377c0.715-0.218,1.399-0.504,2.049-0.851l4.193,1.993c0.909-0.725,1.733-1.549,2.458-2.458l-1.993-4.193c0.347-0.647,0.633-1.334,0.851-2.049L31.229,17.736zM16,20.871c-2.69,0-4.872-2.182-4.872-4.871c0-2.69,2.182-4.872,4.872-4.872c2.689,0,4.871,2.182,4.871,4.872C20.871,18.689,18.689,20.871,16,20.871z"></path><title>Link options.</title></g></g></g></g><!--z-index:62--><g   id="j_136" ><path  stroke="#cccccc" d="M 4439 1003 L 4580 1059 C 4586 1061.6666666666665 4592.333333333333 1063.3333333333333 4599 1064 L 6766 1362 C 6772.666666666666 1362.6666666666665 6779 1364.3333333333333 6785 1367 L 6897 1415" id="v-1898" stroke-width="2" stroke-dasharray="8 8" fill="none" style="opacity: 1;"></path><path  fill="black" stroke="black" d="M 0 0 0 0" transform="matrix(0.9284766955435519,0.371390664708372,-0.371390664708372,0.9284766955435519,4439,1003)"></path><path  fill="#cccccc" stroke="#cccccc" d="M 20 0 L 0 10 L 20 20 z" id="v-1900" transform="matrix(-0.9174818906944407,-0.39777755121142044,0.39777755121142044,-0.9174818906944407,6893.02223870733,1424.6347721534335)" style="opacity: 1;"></path><path  d="M 4439 1003 L 4580 1059 C 4586 1061.6666666666665 4592.333333333333 1063.3333333333333 4599 1064 L 6766 1362 C 6772.666666666666 1362.6666666666665 6779 1364.3333333333333 6785 1367 L 6897 1415" id="v-1899" fill="none" style="cursor: auto; pointer-events: visiblepainted;"></path><g ><g id="v-1892"  label-idx="0" cursor="move" transform="matrix(1,0,0,1,5667.70849609375,1210.9659423828125)" style="cursor: default; opacity: 1;"><rect joint-selector="rect" id="v-1895" fill="#111111" rx="3" ry="3" pointer-events="none" width="172.68789672851562" height="29.330360412597656" transform="matrix(1,0,0,1,-88.4,-14.7)"></rect><text joint-selector="text" id="v-1894" font-size="24px" xml:space="preserve" y="0.8em" fill="#cccccc" text-anchor="middle" pointer-events="none" font-family="Open Sans, Tahoma, Arial" font-weight="normal" transform="matrix(1,0,0,1,0,-11.9)"><tspan dy="0" >Valida tributos</tspan></text></g><g id="v-1893"  label-idx="1" cursor="move" transform="matrix(1,0,0,1,5657.70849609375,1222.9659423828125)" style="cursor: default; opacity: 1;"><rect joint-selector="rect" id="v-1897" fill="#ffffff" rx="3" ry="3"  width="0" height="0" transform="matrix(1,0,0,1,0,0)" display="none"></rect><text joint-selector="text" id="v-1896" fill="#000000" font-size="14" text-anchor="middle" pointer-events="none"></text></g></g><g  display="none" style="display: none;"><g  transform="translate(4589, 1063)" id="v-1995"><circle  idx="0" r="10"></circle><path  idx="0" d="M16,5.333c-7.732,0-14,4.701-14,10.5c0,1.982,0.741,3.833,2.016,5.414L2,25.667l5.613-1.441c2.339,1.317,5.237,2.107,8.387,2.107c7.732,0,14-4.701,14-10.5C30,10.034,23.732,5.333,16,5.333z" transform="translate(5, -33)"></path><path  idx="0" transform="scale(.8) translate(9.5, -37)" d="M24.778,21.419 19.276,15.917 24.777,10.415 21.949,7.585 16.447,13.087 10.945,7.585 8.117,10.415 13.618,15.917 8.116,21.419 10.946,24.248 16.447,18.746 21.948,24.248z"><title>Remove vertex.</title></path></g><g  transform="translate(6776, 1363)" id="v-1996"><circle  idx="1" r="10"></circle><path  idx="1" d="M16,5.333c-7.732,0-14,4.701-14,10.5c0,1.982,0.741,3.833,2.016,5.414L2,25.667l5.613-1.441c2.339,1.317,5.237,2.107,8.387,2.107c7.732,0,14-4.701,14-10.5C30,10.034,23.732,5.333,16,5.333z" transform="translate(5, -33)"></path><path  idx="1" transform="scale(.8) translate(9.5, -37)" d="M24.778,21.419 19.276,15.917 24.777,10.415 21.949,7.585 16.447,13.087 10.945,7.585 8.117,10.415 13.618,15.917 8.116,21.419 10.946,24.248 16.447,18.746 21.948,24.248z"><title>Remove vertex.</title></path></g></g><g  id="v-1902" display="none"><g  id="v-1890"><path  end="source" d="M 26 0 L 0 13 L 26 26 z"></path></g><g  id="v-1891"><path  end="target" d="M 26 0 L 0 13 L 26 26 z"></path></g></g><g  id="v-1901" display="none"><g  id="v-1887" transform="translate(4476.175322531106, 1017.7646671045526) "><g  event="remove"><circle r="11"></circle><path transform="scale(.8) translate(-16, -16)" d="M24.778,21.419 19.276,15.917 24.777,10.415 21.949,7.585 16.447,13.087 10.945,7.585 8.117,10.415 13.618,15.917 8.116,21.419 10.946,24.248 16.447,18.746 21.948,24.248z"></path><title>Remove link.</title></g><g  event="link:options"><circle r="11" transform="translate(25)"></circle><path fill="white" transform="scale(.55) translate(29, -16)" d="M31.229,17.736c0.064-0.571,0.104-1.148,0.104-1.736s-0.04-1.166-0.104-1.737l-4.377-1.557c-0.218-0.716-0.504-1.401-0.851-2.05l1.993-4.192c-0.725-0.91-1.549-1.734-2.458-2.459l-4.193,1.994c-0.647-0.347-1.334-0.632-2.049-0.849l-1.558-4.378C17.165,0.708,16.588,0.667,16,0.667s-1.166,0.041-1.737,0.105L12.707,5.15c-0.716,0.217-1.401,0.502-2.05,0.849L6.464,4.005C5.554,4.73,4.73,5.554,4.005,6.464l1.994,4.192c-0.347,0.648-0.632,1.334-0.849,2.05l-4.378,1.557C0.708,14.834,0.667,15.412,0.667,16s0.041,1.165,0.105,1.736l4.378,1.558c0.217,0.715,0.502,1.401,0.849,2.049l-1.994,4.193c0.725,0.909,1.549,1.733,2.459,2.458l4.192-1.993c0.648,0.347,1.334,0.633,2.05,0.851l1.557,4.377c0.571,0.064,1.148,0.104,1.737,0.104c0.588,0,1.165-0.04,1.736-0.104l1.558-4.377c0.715-0.218,1.399-0.504,2.049-0.851l4.193,1.993c0.909-0.725,1.733-1.549,2.458-2.458l-1.993-4.193c0.347-0.647,0.633-1.334,0.851-2.049L31.229,17.736zM16,20.871c-2.69,0-4.872-2.182-4.872-4.871c0-2.69,2.182-4.872,4.872-4.872c2.689,0,4.871,2.182,4.871,4.872C20.871,18.689,18.689,20.871,16,20.871z"></path><title>Link options.</title></g></g></g></g><!--z-index:63--><g   id="j_137" ><path  stroke="#cccccc" d="M 5939 970 L 7487 1361 C 7493.666666666666 1362.3333333333333 7500 1364.3333333333333 7506 1367 L 7647 1423" id="v-1916" stroke-width="2" stroke-dasharray="8 8" fill="none" style="opacity: 1;"></path><path  fill="black" stroke="black" d="M 0 0 0 0" transform="matrix(0.969596807045563,0.2447080541523905,-0.2447080541523905,0.969596807045563,5939,969.7899780273438)"></path><path  fill="#cccccc" stroke="#cccccc" d="M 20 0 L 0 10 L 20 20 z" id="v-1918" transform="matrix(-0.928476707906966,-0.3713906337998342,0.3713906337998342,-0.928476707906966,7643.286192772322,1432.2848062295677)" style="opacity: 1;"></path><path  d="M 5939 970 L 7487 1361 C 7493.666666666666 1362.3333333333333 7500 1364.3333333333333 7506 1367 L 7647 1423" id="v-1917" fill="none" style="cursor: auto; pointer-events: visiblepainted;"></path><g ><g id="v-1910"  label-idx="0" cursor="move" transform="matrix(1,0,0,1,6796.224609375,1186.521240234375)" style="cursor: default; opacity: 1;"><rect joint-selector="rect" id="v-1913" fill="#111111" rx="3" ry="3" pointer-events="none" width="153.67111206054688" height="29.330360412597656" transform="matrix(1,0,0,1,-75.2,-14.7)"></rect><text joint-selector="text" id="v-1912" font-size="24px" xml:space="preserve" y="0.8em" fill="#cccccc" text-anchor="middle" pointer-events="none" font-family="Open Sans, Tahoma, Arial" font-weight="normal" transform="matrix(1,0,0,1,0,-11.9)"><tspan dy="0" >Envía correos</tspan></text></g><g id="v-1911"  label-idx="1" cursor="move" transform="matrix(1,0,0,1,6786.224609375,1198.521240234375)" style="cursor: default; opacity: 1;"><rect joint-selector="rect" id="v-1915" fill="#ffffff" rx="3" ry="3"  width="0" height="0" transform="matrix(1,0,0,1,0,0)" display="none"></rect><text joint-selector="text" id="v-1914" fill="#000000" font-size="14" text-anchor="middle" pointer-events="none"></text></g></g><g  display="none" style="display: none;"><g  transform="translate(7497, 1363)" id="v-1997"><circle  idx="0" r="10"></circle><path  idx="0" d="M16,5.333c-7.732,0-14,4.701-14,10.5c0,1.982,0.741,3.833,2.016,5.414L2,25.667l5.613-1.441c2.339,1.317,5.237,2.107,8.387,2.107c7.732,0,14-4.701,14-10.5C30,10.034,23.732,5.333,16,5.333z" transform="translate(5, -33)"></path><path  idx="0" transform="scale(.8) translate(9.5, -37)" d="M24.778,21.419 19.276,15.917 24.777,10.415 21.949,7.585 16.447,13.087 10.945,7.585 8.117,10.415 13.618,15.917 8.116,21.419 10.946,24.248 16.447,18.746 21.948,24.248z"><title>Remove vertex.</title></path></g></g><g  id="v-1920" display="none"><g  id="v-1908"><path  end="source" d="M 26 0 L 0 13 L 26 26 z"></path></g><g  id="v-1909"><path  end="target" d="M 26 0 L 0 13 L 26 26 z"></path></g></g><g  id="v-1919" display="none"><g  id="v-1906" transform="translate(5977.782006115929, 979.7957134310907) "><g  event="remove"><circle r="11"></circle><path transform="scale(.8) translate(-16, -16)" d="M24.778,21.419 19.276,15.917 24.777,10.415 21.949,7.585 16.447,13.087 10.945,7.585 8.117,10.415 13.618,15.917 8.116,21.419 10.946,24.248 16.447,18.746 21.948,24.248z"></path><title>Remove link.</title></g><g  event="link:options"><circle r="11" transform="translate(25)"></circle><path fill="white" transform="scale(.55) translate(29, -16)" d="M31.229,17.736c0.064-0.571,0.104-1.148,0.104-1.736s-0.04-1.166-0.104-1.737l-4.377-1.557c-0.218-0.716-0.504-1.401-0.851-2.05l1.993-4.192c-0.725-0.91-1.549-1.734-2.458-2.459l-4.193,1.994c-0.647-0.347-1.334-0.632-2.049-0.849l-1.558-4.378C17.165,0.708,16.588,0.667,16,0.667s-1.166,0.041-1.737,0.105L12.707,5.15c-0.716,0.217-1.401,0.502-2.05,0.849L6.464,4.005C5.554,4.73,4.73,5.554,4.005,6.464l1.994,4.192c-0.347,0.648-0.632,1.334-0.849,2.05l-4.378,1.557C0.708,14.834,0.667,15.412,0.667,16s0.041,1.165,0.105,1.736l4.378,1.558c0.217,0.715,0.502,1.401,0.849,2.049l-1.994,4.193c0.725,0.909,1.549,1.733,2.459,2.458l4.192-1.993c0.648,0.347,1.334,0.633,2.05,0.851l1.557,4.377c0.571,0.064,1.148,0.104,1.737,0.104c0.588,0,1.165-0.04,1.736-0.104l1.558-4.377c0.715-0.218,1.399-0.504,2.049-0.851l4.193,1.993c0.909-0.725,1.733-1.549,2.458-2.458l-1.993-4.193c0.347-0.647,0.633-1.334,0.851-2.049L31.229,17.736zM16,20.871c-2.69,0-4.872-2.182-4.872-4.871c0-2.69,2.182-4.872,4.872-4.872c2.689,0,4.871,2.182,4.871,4.872C20.871,18.689,18.689,20.871,16,20.871z"></path><title>Link options.</title></g></g></g></g><!--z-index:64--><g   id="j_138" ><path  stroke="#cccccc" d="M 1214 1063 L 1214 1363" id="v-1933" stroke-width="2" stroke-dasharray="8 8" fill="none" style="opacity: 1;"></path><path  fill="black" stroke="black" d="M 0 0 0 0" transform="matrix(6.123233995736766e-17,1,-1,6.123233995736766e-17,1214,1063)"></path><path  fill="#cccccc" stroke="#cccccc" d="M 20 0 L 0 10 L 20 20 z" id="v-1935" transform="matrix(-1.8369701987210297e-16,-1,1,-1.8369701987210297e-16,1204.0000000000002,1363)" style="opacity: 1;"></path><path  d="M 1214 1063 L 1214 1363" id="v-1934" fill="none" style="cursor: auto; pointer-events: visiblepainted;"></path><g ><g id="v-1927"  label-idx="0" cursor="move" transform="matrix(1,0,0,1,1214,1213)" style="cursor: default; opacity: 1;"><rect joint-selector="rect" id="v-1930" fill="#111111" rx="3" ry="3" pointer-events="none" width="143.29811096191406" height="29.330360412597656" transform="matrix(1,0,0,1,-71.6,-14.7)"></rect><text joint-selector="text" id="v-1929" font-size="24px" xml:space="preserve" y="0.8em" fill="#cccccc" text-anchor="middle" pointer-events="none" font-family="Open Sans, Tahoma, Arial" font-weight="normal" transform="matrix(1,0,0,1,0,-11.9)"><tspan dy="0" >Usa catálogo</tspan></text></g><g id="v-1928"  label-idx="1" cursor="move" transform="matrix(1,0,0,1,1204,1225)" style="cursor: default; opacity: 1;"><rect joint-selector="rect" id="v-1932" fill="#ffffff" rx="3" ry="3"  width="0" height="0" transform="matrix(1,0,0,1,0,0)" display="none"></rect><text joint-selector="text" id="v-1931" fill="#000000" font-size="14" text-anchor="middle" pointer-events="none"></text></g></g><g  display="none" style="display: none;"></g><g  id="v-1937" display="none"><g  id="v-1925"><path  end="source" d="M 26 0 L 0 13 L 26 26 z"></path></g><g  id="v-1926"><path  end="target" d="M 26 0 L 0 13 L 26 26 z"></path></g></g><g  id="v-1936" display="none"><g  id="v-1924" transform="translate(1214, 1103) "><g  event="remove"><circle r="11"></circle><path transform="scale(.8) translate(-16, -16)" d="M24.778,21.419 19.276,15.917 24.777,10.415 21.949,7.585 16.447,13.087 10.945,7.585 8.117,10.415 13.618,15.917 8.116,21.419 10.946,24.248 16.447,18.746 21.948,24.248z"></path><title>Remove link.</title></g><g  event="link:options"><circle r="11" transform="translate(25)"></circle><path fill="white" transform="scale(.55) translate(29, -16)" d="M31.229,17.736c0.064-0.571,0.104-1.148,0.104-1.736s-0.04-1.166-0.104-1.737l-4.377-1.557c-0.218-0.716-0.504-1.401-0.851-2.05l1.993-4.192c-0.725-0.91-1.549-1.734-2.458-2.459l-4.193,1.994c-0.647-0.347-1.334-0.632-2.049-0.849l-1.558-4.378C17.165,0.708,16.588,0.667,16,0.667s-1.166,0.041-1.737,0.105L12.707,5.15c-0.716,0.217-1.401,0.502-2.05,0.849L6.464,4.005C5.554,4.73,4.73,5.554,4.005,6.464l1.994,4.192c-0.347,0.648-0.632,1.334-0.849,2.05l-4.378,1.557C0.708,14.834,0.667,15.412,0.667,16s0.041,1.165,0.105,1.736l4.378,1.558c0.217,0.715,0.502,1.401,0.849,2.049l-1.994,4.193c0.725,0.909,1.549,1.733,2.459,2.458l4.192-1.993c0.648,0.347,1.334,0.633,2.05,0.851l1.557,4.377c0.571,0.064,1.148,0.104,1.737,0.104c0.588,0,1.165-0.04,1.736-0.104l1.558-4.377c0.715-0.218,1.399-0.504,2.049-0.851l4.193,1.993c0.909-0.725,1.733-1.549,2.458-2.458l-1.993-4.193c0.347-0.647,0.633-1.334,0.851-2.049L31.229,17.736zM16,20.871c-2.69,0-4.872-2.182-4.872-4.871c0-2.69,2.182-4.872,4.872-4.872c2.689,0,4.871,2.182,4.871,4.872C20.871,18.689,18.689,20.871,16,20.871z"></path><title>Link options.</title></g></g></g></g><!--z-index:65--><g   id="j_139" ><path  stroke="#cccccc" d="M 3989 1003 L 3848 1059 C 3841.9999999999995 1061.6666666666665 3835.666666666666 1063.6666666666665 3829 1065 L 1439 1474" id="v-1951" stroke-width="2" stroke-dasharray="8 8" fill="none" style="opacity: 1;"></path><path  fill="black" stroke="black" d="M 0 0 0 0" transform="matrix(-0.928476707906966,0.37139063379983406,-0.37139063379983406,-0.928476707906966,3989,1003)"></path><path  fill="#cccccc" stroke="#cccccc" d="M 20 0 L 0 10 L 20 20 z" id="v-1953" transform="matrix(0.985622191273833,-0.16896418575712346,0.16896418575712346,0.985622191273833,1437.3103374015654,1464.5737763901457)" style="opacity: 1;"></path><path  d="M 3989 1003 L 3848 1059 C 3841.9999999999995 1061.6666666666665 3835.666666666666 1063.6666666666665 3829 1065 L 1439 1474" id="v-1952" fill="none" style="cursor: auto; pointer-events: visiblepainted;"></path><g ><g id="v-1945"  label-idx="0" cursor="move" transform="matrix(1,0,0,1,2718.6083984375,1255.02099609375)" style="cursor: default; opacity: 1;"><rect joint-selector="rect" id="v-1948" fill="#111111" rx="3" ry="3" pointer-events="none" width="150.69728088378906" height="29.330360412597656" transform="matrix(1,0,0,1,-74.7,-14.7)"></rect><text joint-selector="text" id="v-1947" font-size="24px" xml:space="preserve" y="0.8em" fill="#cccccc" text-anchor="middle" pointer-events="none" font-family="Open Sans, Tahoma, Arial" font-weight="normal" transform="matrix(1,0,0,1,0,-11.9)"><tspan dy="0" >Usa auditoría</tspan></text></g><g id="v-1946"  label-idx="1" cursor="move" transform="matrix(1,0,0,1,2708.6083984375,1267.02099609375)" style="cursor: default; opacity: 1;"><rect joint-selector="rect" id="v-1950" fill="#ffffff" rx="3" ry="3"  width="0" height="0" transform="matrix(1,0,0,1,0,0)" display="none"></rect><text joint-selector="text" id="v-1949" fill="#000000" font-size="14" text-anchor="middle" pointer-events="none"></text></g></g><g  display="none" style="display: none;"><g  transform="translate(3839, 1063)" id="v-1998"><circle  idx="0" r="10"></circle><path  idx="0" d="M16,5.333c-7.732,0-14,4.701-14,10.5c0,1.982,0.741,3.833,2.016,5.414L2,25.667l5.613-1.441c2.339,1.317,5.237,2.107,8.387,2.107c7.732,0,14-4.701,14-10.5C30,10.034,23.732,5.333,16,5.333z" transform="translate(5, -33)"></path><path  idx="0" transform="scale(.8) translate(9.5, -37)" d="M24.778,21.419 19.276,15.917 24.777,10.415 21.949,7.585 16.447,13.087 10.945,7.585 8.117,10.415 13.618,15.917 8.116,21.419 10.946,24.248 16.447,18.746 21.948,24.248z"><title>Remove vertex.</title></path></g></g><g  id="v-1955" display="none"><g  id="v-1943"><path  end="source" d="M 26 0 L 0 13 L 26 26 z"></path></g><g  id="v-1944"><path  end="target" d="M 26 0 L 0 13 L 26 26 z"></path></g></g><g  id="v-1954" display="none"><g  id="v-1941" transform="translate(3951.824677468894, 1017.7646671045526) "><g  event="remove"><circle r="11"></circle><path transform="scale(.8) translate(-16, -16)" d="M24.778,21.419 19.276,15.917 24.777,10.415 21.949,7.585 16.447,13.087 10.945,7.585 8.117,10.415 13.618,15.917 8.116,21.419 10.946,24.248 16.447,18.746 21.948,24.248z"></path><title>Remove link.</title></g><g  event="link:options"><circle r="11" transform="translate(25)"></circle><path fill="white" transform="scale(.55) translate(29, -16)" d="M31.229,17.736c0.064-0.571,0.104-1.148,0.104-1.736s-0.04-1.166-0.104-1.737l-4.377-1.557c-0.218-0.716-0.504-1.401-0.851-2.05l1.993-4.192c-0.725-0.91-1.549-1.734-2.458-2.459l-4.193,1.994c-0.647-0.347-1.334-0.632-2.049-0.849l-1.558-4.378C17.165,0.708,16.588,0.667,16,0.667s-1.166,0.041-1.737,0.105L12.707,5.15c-0.716,0.217-1.401,0.502-2.05,0.849L6.464,4.005C5.554,4.73,4.73,5.554,4.005,6.464l1.994,4.192c-0.347,0.648-0.632,1.334-0.849,2.05l-4.378,1.557C0.708,14.834,0.667,15.412,0.667,16s0.041,1.165,0.105,1.736l4.378,1.558c0.217,0.715,0.502,1.401,0.849,2.049l-1.994,4.193c0.725,0.909,1.549,1.733,2.459,2.458l4.192-1.993c0.648,0.347,1.334,0.633,2.05,0.851l1.557,4.377c0.571,0.064,1.148,0.104,1.737,0.104c0.588,0,1.165-0.04,1.736-0.104l1.558-4.377c0.715-0.218,1.399-0.504,2.049-0.851l4.193,1.993c0.909-0.725,1.733-1.549,2.458-2.458l-1.993-4.193c0.347-0.647,0.633-1.334,0.851-2.049L31.229,17.736zM16,20.871c-2.69,0-4.872-2.182-4.872-4.871c0-2.69,2.182-4.872,4.872-4.872c2.689,0,4.871,2.182,4.871,4.872C20.871,18.689,18.689,20.871,16,20.871z"></path><title>Link options.</title></g></g></g></g><!--z-index:66--><g   id="j_140" ><path  stroke="#cccccc" d="M 652 1063 L 1027 1363" id="v-1968" stroke-width="2" stroke-dasharray="8 8" fill="none" style="opacity: 1;"></path><path  fill="black" stroke="black" d="M 0 0 0 0" transform="matrix(0.7808688000832672,0.624695059254128,-0.624695059254128,0.7808688000832672,651.5,1063)"></path><path  fill="#cccccc" stroke="#cccccc" d="M 20 0 L 0 10 L 20 20 z" id="v-1970" transform="matrix(-0.7808688416748548,-0.6246950072646416,0.6246950072646416,-0.7808688416748548,1020.2530225237898,1370.8086902472073)" style="opacity: 1;"></path><path  d="M 652 1063 L 1027 1363" id="v-1969" fill="none" style="cursor: auto; pointer-events: visiblepainted;"></path><g ><g id="v-1962"  label-idx="0" cursor="move" transform="matrix(1,0,0,1,839.5,1213)" style="cursor: default; opacity: 1;"><rect joint-selector="rect" id="v-1965" fill="#111111" rx="3" ry="3" pointer-events="none" width="160.66053771972656" height="29.330360412597656" transform="matrix(1,0,0,1,-78.8,-14.7)"></rect><text joint-selector="text" id="v-1964" font-size="24px" xml:space="preserve" y="0.8em" fill="#cccccc" text-anchor="middle" pointer-events="none" font-family="Open Sans, Tahoma, Arial" font-weight="normal" transform="matrix(1,0,0,1,0,-11.9)"><tspan dy="0" >Usa utilidades</tspan></text></g><g id="v-1963"  label-idx="1" cursor="move" transform="matrix(1,0,0,1,829.5,1225)" style="cursor: default; opacity: 1;"><rect joint-selector="rect" id="v-1967" fill="#ffffff" rx="3" ry="3"  width="0" height="0" transform="matrix(1,0,0,1,0,0)" display="none"></rect><text joint-selector="text" id="v-1966" fill="#000000" font-size="14" text-anchor="middle" pointer-events="none"></text></g></g><g  display="none" style="display: none;"></g><g  id="v-1972" display="none"><g  id="v-1960"><path  end="source" d="M 26 0 L 0 13 L 26 26 z"></path></g><g  id="v-1961"><path  end="target" d="M 26 0 L 0 13 L 26 26 z"></path></g></g><g  id="v-1971" display="none"><g  id="v-1959" transform="translate(683.2347523777213, 1087.9878019021771) "><g  event="remove"><circle r="11"></circle><path transform="scale(.8) translate(-16, -16)" d="M24.778,21.419 19.276,15.917 24.777,10.415 21.949,7.585 16.447,13.087 10.945,7.585 8.117,10.415 13.618,15.917 8.116,21.419 10.946,24.248 16.447,18.746 21.948,24.248z"></path><title>Remove link.</title></g><g  event="link:options"><circle r="11" transform="translate(25)"></circle><path fill="white" transform="scale(.55) translate(29, -16)" d="M31.229,17.736c0.064-0.571,0.104-1.148,0.104-1.736s-0.04-1.166-0.104-1.737l-4.377-1.557c-0.218-0.716-0.504-1.401-0.851-2.05l1.993-4.192c-0.725-0.91-1.549-1.734-2.458-2.459l-4.193,1.994c-0.647-0.347-1.334-0.632-2.049-0.849l-1.558-4.378C17.165,0.708,16.588,0.667,16,0.667s-1.166,0.041-1.737,0.105L12.707,5.15c-0.716,0.217-1.401,0.502-2.05,0.849L6.464,4.005C5.554,4.73,4.73,5.554,4.005,6.464l1.994,4.192c-0.347,0.648-0.632,1.334-0.849,2.05l-4.378,1.557C0.708,14.834,0.667,15.412,0.667,16s0.041,1.165,0.105,1.736l4.378,1.558c0.217,0.715,0.502,1.401,0.849,2.049l-1.994,4.193c0.725,0.909,1.549,1.733,2.459,2.458l4.192-1.993c0.648,0.347,1.334,0.633,2.05,0.851l1.557,4.377c0.571,0.064,1.148,0.104,1.737,0.104c0.588,0,1.165-0.04,1.736-0.104l1.558-4.377c0.715-0.218,1.399-0.504,2.049-0.851l4.193,1.993c0.909-0.725,1.733-1.549,2.458-2.458l-1.993-4.193c0.347-0.647,0.633-1.334,0.851-2.049L31.229,17.736zM16,20.871c-2.69,0-4.872-2.182-4.872-4.871c0-2.69,2.182-4.872,4.872-4.872c2.689,0,4.871,2.182,4.871,4.872C20.871,18.689,18.689,20.871,16,20.871z"></path><title>Link options.</title></g></g></g></g><!--z-index:67--></g><g ></g><g ></g><g ></g></g></svg>