<svg xmlns="http://www.w3.org/2000/svg" xmlns:xlink="http://www.w3.org/1999/xlink" version="1.1" viewBox="0 0 2300 2200" style="background: #111111"><defs joint-selector="defs"></defs><g joint-selector="layers"  transform="matrix(1,0,0,1,0,0)"><g ></g><g ><!--z-index:0--><!--z-index:1--><!--z-index:2--><!--z-index:3--><!--z-index:4--><!--z-index:5--><!--z-index:6--><!--z-index:7--><!--z-index:8--><!--z-index:9--><!--z-index:10--><!--z-index:11--><!--z-index:12--><!--z-index:13--><!--z-index:14--><!--z-index:15--><g   id="j_73"  transform="translate(20,2156)"><g id="v-1005"><text  id="v-1006" font-size="24px" xml:space="preserve" y="0.8em" font-weight="normal" text-anchor="start" fill="#cccccc" pointer-events="none" display="block" font-family="Open Sans, Tahoma, Arial"><tspan dy="0"  display="block">miércoles, 22 de abril de 2026, 8:49 p. m. hora estándar de Perú</tspan></text></g></g><!--z-index:16--><g   id="j_72"  transform="translate(20,2122)"><g id="v-1003"><text  id="v-1004" font-size="24px" xml:space="preserve" y="0.8em" font-weight="normal" text-anchor="start" fill="#cccccc" pointer-events="none" display="block" font-family="Open Sans, Tahoma, Arial"><tspan dy="0"  display="block">Vista de alto nivel del ecosistema Buildline.</tspan></text></g></g><!--z-index:17--><g   id="j_71"  transform="translate(20,2076)"><g id="v-1001"><text  id="v-1002" font-size="36px" xml:space="preserve" y="0.8em" font-weight="normal" text-anchor="start" fill="#cccccc" pointer-events="none" display="block" font-family="Open Sans, Tahoma, Arial"><tspan dy="0"  display="block">System Context View: Buildline Platform</tspan></text></g></g><!--z-index:18--><g   id="j_74"  transform="translate(199,143)" style=""><g  id="v-1013" style="opacity: 1;"><rect  x="0" y="160" width="400" height="240" rx="70" id="v-1015" stroke-width="2" pointer-events="visiblePainted" fill="#08427b" stroke="#073b6f" stroke-dasharray=""></rect><circle  cx="200" cy="88.88888888888889" r="88.88888888888889" id="v-1014" stroke-width="2" pointer-events="visiblePainted" fill="#08427b" stroke="#073b6f" stroke-dasharray=""></circle><line  x1="80" y1="266.6666666666667" x2="80" y2="400" id="v-1021" stroke="#073b6f" stroke-width="1" stroke-dasharray=""></line><line  x1="320" y1="266.6666666666667" x2="320" y2="400" id="v-1022" stroke="#073b6f" stroke-width="1" stroke-dasharray=""></line><text  id="v-1016" font-size="33.599999999999994px" xml:space="preserve" y="188.10000000000002" font-weight="bold" text-anchor="middle" pointer-events="visible" font-family="Open Sans, Tahoma, Arial" fill="#ffffff" dominant-baseline="hanging" transform="matrix(1,0,0,1,200,0)"><tspan dy="0" >Ingeniero Residente</tspan></text><text  id="v-1017" font-size="16.799999999999997px" xml:space="preserve" y="229.70000000000002" text-anchor="middle" font-family="Open Sans, Tahoma, Arial" fill="#ffffff" dominant-baseline="hanging" transform="matrix(1,0,0,1,200,0)" style="display: block;"><tspan dy="0" >[Person]</tspan></text><text  id="v-1018" font-size="24px" xml:space="preserve" y="261.5" text-anchor="middle" font-family="Open Sans, Tahoma, Arial" fill="#ffffff" dominant-baseline="hanging" transform="matrix(1,0,0,1,200,0)" style="display: block;"><tspan dy="0" >Usuario en campo. Registra</tspan><tspan dy="1.2em" x="0" >requerimientos, adjunta</tspan><tspan dy="1.2em" x="0" >evidencias y confirma</tspan><tspan dy="1.2em" x="0" >recepción de materiales.</tspan></text><g  id="v-1019" font-weight="normal" text-anchor="middle" color="#ffffff" transform="matrix(1,0,0,1,197.5,368)" display="none"><g ></g><g ></g><g ></g><g ></g></g><image  id="v-1020"></image></g></g><!--z-index:19--><g   id="j_75"  transform="translate(199,843)" style=""><g  id="v-1029" style="opacity: 1;"><rect  x="0" y="160" width="400" height="240" rx="70" id="v-1031" stroke-width="2" pointer-events="visiblePainted" fill="#08427b" stroke="#073b6f" stroke-dasharray=""></rect><circle  cx="200" cy="88.88888888888889" r="88.88888888888889" id="v-1030" stroke-width="2" pointer-events="visiblePainted" fill="#08427b" stroke="#073b6f" stroke-dasharray=""></circle><line  x1="80" y1="266.6666666666667" x2="80" y2="400" id="v-1037" stroke="#073b6f" stroke-width="1" stroke-dasharray=""></line><line  x1="320" y1="266.6666666666667" x2="320" y2="400" id="v-1038" stroke="#073b6f" stroke-width="1" stroke-dasharray=""></line><text  id="v-1032" font-size="33.599999999999994px" xml:space="preserve" y="202.5" font-weight="bold" text-anchor="middle" pointer-events="visible" font-family="Open Sans, Tahoma, Arial" fill="#ffffff" dominant-baseline="hanging" transform="matrix(1,0,0,1,200,0)"><tspan dy="0" >Analista de Logística</tspan></text><text  id="v-1033" font-size="16.799999999999997px" xml:space="preserve" y="244.1" text-anchor="middle" font-family="Open Sans, Tahoma, Arial" fill="#ffffff" dominant-baseline="hanging" transform="matrix(1,0,0,1,200,0)" style="display: block;"><tspan dy="0" >[Person]</tspan></text><text  id="v-1034" font-size="24px" xml:space="preserve" y="275.9" text-anchor="middle" font-family="Open Sans, Tahoma, Arial" fill="#ffffff" dominant-baseline="hanging" transform="matrix(1,0,0,1,200,0)" style="display: block;"><tspan dy="0" >Usuario en oficina. Gestiona</tspan><tspan dy="1.2em" x="0" >cotizaciones, comparativas y</tspan><tspan dy="1.2em" x="0" >órdenes de compra.</tspan></text><g  id="v-1035" font-weight="normal" text-anchor="middle" color="#ffffff" transform="matrix(1,0,0,1,197.5,368)" display="none"><g ></g><g ></g><g ></g><g ></g></g><image  id="v-1036"></image></g></g><!--z-index:20--><g   id="j_76"  transform="translate(199,1543)" style=""><g  id="v-1045" style="opacity: 1;"><rect  x="0" y="160" width="400" height="240" rx="70" id="v-1047" stroke-width="2" pointer-events="visiblePainted" fill="#08427b" stroke="#073b6f" stroke-dasharray=""></rect><circle  cx="200" cy="88.88888888888889" r="88.88888888888889" id="v-1046" stroke-width="2" pointer-events="visiblePainted" fill="#08427b" stroke="#073b6f" stroke-dasharray=""></circle><line  x1="80" y1="266.6666666666667" x2="80" y2="400" id="v-1053" stroke="#073b6f" stroke-width="1" stroke-dasharray=""></line><line  x1="320" y1="266.6666666666667" x2="320" y2="400" id="v-1054" stroke="#073b6f" stroke-width="1" stroke-dasharray=""></line><text  id="v-1048" font-size="33.599999999999994px" xml:space="preserve" y="182.34" font-weight="bold" text-anchor="middle" pointer-events="visible" font-family="Open Sans, Tahoma, Arial" fill="#ffffff" dominant-baseline="hanging" transform="matrix(1,0,0,1,200,0)"><tspan dy="0" >Jefe de Proyecto /</tspan><tspan dy="1.2em" x="0" >Gerente</tspan></text><text  id="v-1049" font-size="16.799999999999997px" xml:space="preserve" y="264.26" text-anchor="middle" font-family="Open Sans, Tahoma, Arial" fill="#ffffff" dominant-baseline="hanging" transform="matrix(1,0,0,1,200,0)" style="display: block;"><tspan dy="0" >[Person]</tspan></text><text  id="v-1050" font-size="24px" xml:space="preserve" y="296.06" text-anchor="middle" font-family="Open Sans, Tahoma, Arial" fill="#ffffff" dominant-baseline="hanging" transform="matrix(1,0,0,1,200,0)" style="display: block;"><tspan dy="0" >Usuario estratégico. Aprueba</tspan><tspan dy="1.2em" x="0" >gastos y analiza indicadores</tspan><tspan dy="1.2em" x="0" >de rentabilidad (APU).</tspan></text><g  id="v-1051" font-weight="normal" text-anchor="middle" color="#ffffff" transform="matrix(1,0,0,1,197.5,368)" display="none"><g ></g><g ></g><g ></g><g ></g></g><image  id="v-1052"></image></g></g><!--z-index:21--><g   id="j_77"  transform="translate(1649,293)" style=""><g  id="v-1061" style="opacity: 1;"><rect  id="v-1062" rx="1" ry="1" stroke-width="2" pointer-events="visiblePainted" fill="#999999" stroke="#8a8a8a" stroke-dasharray="" width="450" height="300"></rect><text  id="v-1063" font-size="33.599999999999994px" xml:space="preserve" y="86.9" font-weight="bold" text-anchor="middle" pointer-events="visible" font-family="Open Sans, Tahoma, Arial" fill="#ffffff" dominant-baseline="hanging" transform="matrix(1,0,0,1,225,0)"><tspan dy="0" >SUNAT / Billing API</tspan></text><text  id="v-1064" font-size="16.799999999999997px" xml:space="preserve" y="128.5" text-anchor="middle" font-family="Open Sans, Tahoma, Arial" fill="#ffffff" dominant-baseline="hanging" transform="matrix(1,0,0,1,225,0)" style="display: block;"><tspan dy="0" >[Software System]</tspan></text><text  id="v-1065" font-size="24px" xml:space="preserve" y="160.3" text-anchor="middle" font-family="Open Sans, Tahoma, Arial" fill="#ffffff" dominant-baseline="hanging" transform="matrix(1,0,0,1,225,0)" style="display: block;"><tspan dy="0" >Validación de facturas electrónicas</tspan><tspan dy="1.2em" x="0" >y cumplimiento tributario.</tspan></text><g  id="v-1066" color="#ffffff" transform="matrix(1,0,0,1,222.5,268)" display="none"><g ></g><g ></g><g ></g><g ></g></g><image  id="v-1067"></image></g></g><!--z-index:22--><g   id="j_78"  transform="translate(1649,893)" style=""><g  id="v-1071" style="opacity: 1;"><rect  id="v-1072" rx="1" ry="1" stroke-width="2" pointer-events="visiblePainted" fill="#999999" stroke="#8a8a8a" stroke-dasharray="" width="450" height="300"></rect><text  id="v-1073" font-size="33.599999999999994px" xml:space="preserve" y="86.9" font-weight="bold" text-anchor="middle" pointer-events="visible" font-family="Open Sans, Tahoma, Arial" fill="#ffffff" dominant-baseline="hanging" transform="matrix(1,0,0,1,225,0)"><tspan dy="0" >Email Service</tspan></text><text  id="v-1074" font-size="16.799999999999997px" xml:space="preserve" y="128.5" text-anchor="middle" font-family="Open Sans, Tahoma, Arial" fill="#ffffff" dominant-baseline="hanging" transform="matrix(1,0,0,1,225,0)" style="display: block;"><tspan dy="0" >[Software System]</tspan></text><text  id="v-1075" font-size="24px" xml:space="preserve" y="160.3" text-anchor="middle" font-family="Open Sans, Tahoma, Arial" fill="#ffffff" dominant-baseline="hanging" transform="matrix(1,0,0,1,225,0)" style="display: block;"><tspan dy="0" >Servicio de notificaciones y</tspan><tspan dy="1.2em" x="0" >despacho de OCs a proveedores.</tspan></text><g  id="v-1076" color="#ffffff" transform="matrix(1,0,0,1,222.5,268)" display="none"><g ></g><g ></g><g ></g><g ></g></g><image  id="v-1077"></image></g></g><!--z-index:23--><g   id="j_79"  transform="translate(1649,1493)" style=""><g  id="v-1081" style="opacity: 1;"><rect  id="v-1082" rx="1" ry="1" stroke-width="2" pointer-events="visiblePainted" fill="#999999" stroke="#8a8a8a" stroke-dasharray="" width="450" height="300"></rect><text  id="v-1083" font-size="33.599999999999994px" xml:space="preserve" y="86.9" font-weight="bold" text-anchor="middle" pointer-events="visible" font-family="Open Sans, Tahoma, Arial" fill="#ffffff" dominant-baseline="hanging" transform="matrix(1,0,0,1,225,0)"><tspan dy="0" >Payment Gateway</tspan></text><text  id="v-1084" font-size="16.799999999999997px" xml:space="preserve" y="128.5" text-anchor="middle" font-family="Open Sans, Tahoma, Arial" fill="#ffffff" dominant-baseline="hanging" transform="matrix(1,0,0,1,225,0)" style="display: block;"><tspan dy="0" >[Software System]</tspan></text><text  id="v-1085" font-size="24px" xml:space="preserve" y="160.3" text-anchor="middle" font-family="Open Sans, Tahoma, Arial" fill="#ffffff" dominant-baseline="hanging" transform="matrix(1,0,0,1,225,0)" style="display: block;"><tspan dy="0" >Procesamiento de suscripciones</tspan><tspan dy="1.2em" x="0" >SaaS para constructoras.</tspan></text><g  id="v-1086" color="#ffffff" transform="matrix(1,0,0,1,222.5,268)" display="none"><g ></g><g ></g><g ></g><g ></g></g><image  id="v-1087"></image></g></g><!--z-index:24--><g   id="j_80"  transform="translate(899,893)" style=""><g  id="v-1094" style="opacity: 1;"><rect  id="v-1095" rx="1" ry="1" stroke-width="2" pointer-events="visiblePainted" fill="#1168bd" stroke="#0f5eaa" stroke-dasharray="" width="450" height="300"></rect><text  id="v-1096" font-size="33.599999999999994px" xml:space="preserve" y="72.5" font-weight="bold" text-anchor="middle" pointer-events="visible" font-family="Open Sans, Tahoma, Arial" fill="#ffffff" dominant-baseline="hanging" transform="matrix(1,0,0,1,225,0)"><tspan dy="0" >Buildline Platform</tspan></text><text  id="v-1097" font-size="16.799999999999997px" xml:space="preserve" y="114.1" text-anchor="middle" font-family="Open Sans, Tahoma, Arial" fill="#ffffff" dominant-baseline="hanging" transform="matrix(1,0,0,1,225,0)" style="display: block;"><tspan dy="0" >[Software System]</tspan></text><text  id="v-1098" font-size="24px" xml:space="preserve" y="145.89999999999998" text-anchor="middle" font-family="Open Sans, Tahoma, Arial" fill="#ffffff" dominant-baseline="hanging" transform="matrix(1,0,0,1,225,0)" style="display: block;"><tspan dy="0" >Centraliza el abastecimiento</tspan><tspan dy="1.2em" x="0" >logístico para MYPES</tspan><tspan dy="1.2em" x="0" >constructoras.</tspan></text><g  id="v-1099" color="#ffffff" transform="matrix(1,0,0,1,210,268)" display="none"><g  transform="translate(5 0)"><svg xmlns="http://www.w3.org/2000/svg" width="20" height="20" fill="currentColor" viewBox="0 0 16 16"><path fill-rule="evenodd" d="M6.5 12a5.5 5.5 0 1 0 0-11 5.5 5.5 0 0 0 0 11zM13 6.5a6.5 6.5 0 1 1-13 0 6.5 6.5 0 0 1 13 0z"></path><path d="M10.344 11.742c.03.04.062.078.098.115l3.85 3.85a1 1 0 0 0 1.415-1.414l-3.85-3.85a1.007 1.007 0 0 0-.115-.1 6.538 6.538 0 0 1-1.398 1.4z"></path><path fill-rule="evenodd" d="M6.5 3a.5.5 0 0 1 .5.5V6h2.5a.5.5 0 0 1 0 1H7v2.5a.5.5 0 0 1-1 0V7H3.5a.5.5 0 0 1 0-1H6V3.5a.5.5 0 0 1 .5-.5z"></path></svg></g><g ></g><g ></g><g ></g></g><image  id="v-1100"></image></g></g><!--z-index:25--><g   id="j_81" ><path  stroke="#cccccc" d="M 599 536 L 969 893" id="v-1113" stroke-width="2" stroke-dasharray="8 8" fill="none" style="opacity: 1;"></path><path  fill="black" stroke="black" d="M 0 0 0 0" transform="matrix(0.7193954363945877,0.6946007530190568,-0.6946007530190568,0.7193954363945877,599,536.0999755859375)"></path><path  fill="#cccccc" stroke="#cccccc" d="M 20 0 L 0 10 L 20 20 z" id="v-1115" transform="matrix(-0.7193954826404289,-0.6946007051224067,0.6946007051224067,-0.7193954826404289,961.6939926970553,900.1939779909096)" style="opacity: 1;"></path><path  d="M 599 536 L 969 893" id="v-1114" fill="none" style="cursor: auto; pointer-events: visiblepainted;"></path><g ><g id="v-1107"  label-idx="0" cursor="move" transform="matrix(1,0,0,1,784,714.5)" style="cursor: default; opacity: 1;"><rect joint-selector="rect" id="v-1110" fill="#111111" rx="3" ry="3" pointer-events="none" width="195.65560913085938" height="119.54500198364258" transform="matrix(1,0,0,1,-95.6,-59.8)"></rect><text joint-selector="text" id="v-1109" font-size="24px" xml:space="preserve" y="0.8em" fill="#cccccc" text-anchor="middle" pointer-events="none" font-family="Open Sans, Tahoma, Arial" font-weight="normal" transform="matrix(1,0,0,1,0,-54.1)"><tspan dy="0" >Usa para</tspan><tspan dy="1.2em" x="0" >registrar</tspan><tspan dy="1.2em" x="0" >requerimientos y</tspan><tspan dy="1.2em" x="0" >recepciones</tspan></text></g><g id="v-1108"  label-idx="1" cursor="move" transform="matrix(1,0,0,1,774,769.7000122070312)" style="cursor: default; opacity: 1;"><rect joint-selector="rect" id="v-1112" fill="#ffffff" rx="3" ry="3"  width="0" height="0" transform="matrix(1,0,0,1,0,0)" display="none"></rect><text joint-selector="text" id="v-1111" fill="#000000" font-size="14" text-anchor="middle" pointer-events="none"></text></g></g><g  display="none" style="display: none;"></g><g  id="v-1117" display="none"><g  id="v-1105"><path  end="source" d="M 26 0 L 0 13 L 26 26 z"></path></g><g  id="v-1106"><path  end="target" d="M 26 0 L 0 13 L 26 26 z"></path></g></g><g  id="v-1116" display="none"><g  id="v-1104" transform="translate(627.7854404780039, 563.7740601368848) "><g  event="remove"><circle r="11"></circle><path transform="scale(.8) translate(-16, -16)" d="M24.778,21.419 19.276,15.917 24.777,10.415 21.949,7.585 16.447,13.087 10.945,7.585 8.117,10.415 13.618,15.917 8.116,21.419 10.946,24.248 16.447,18.746 21.948,24.248z"></path><title>Remove link.</title></g><g  event="link:options"><circle r="11" transform="translate(25)"></circle><path fill="white" transform="scale(.55) translate(29, -16)" d="M31.229,17.736c0.064-0.571,0.104-1.148,0.104-1.736s-0.04-1.166-0.104-1.737l-4.377-1.557c-0.218-0.716-0.504-1.401-0.851-2.05l1.993-4.192c-0.725-0.91-1.549-1.734-2.458-2.459l-4.193,1.994c-0.647-0.347-1.334-0.632-2.049-0.849l-1.558-4.378C17.165,0.708,16.588,0.667,16,0.667s-1.166,0.041-1.737,0.105L12.707,5.15c-0.716,0.217-1.401,0.502-2.05,0.849L6.464,4.005C5.554,4.73,4.73,5.554,4.005,6.464l1.994,4.192c-0.347,0.648-0.632,1.334-0.849,2.05l-4.378,1.557C0.708,14.834,0.667,15.412,0.667,16s0.041,1.165,0.105,1.736l4.378,1.558c0.217,0.715,0.502,1.401,0.849,2.049l-1.994,4.193c0.725,0.909,1.549,1.733,2.459,2.458l4.192-1.993c0.648,0.347,1.334,0.633,2.05,0.851l1.557,4.377c0.571,0.064,1.148,0.104,1.737,0.104c0.588,0,1.165-0.04,1.736-0.104l1.558-4.377c0.715-0.218,1.399-0.504,2.049-0.851l4.193,1.993c0.909-0.725,1.733-1.549,2.458-2.458l-1.993-4.193c0.347-0.647,0.633-1.334,0.851-2.049L31.229,17.736zM16,20.871c-2.69,0-4.872-2.182-4.872-4.871c0-2.69,2.182-4.872,4.872-4.872c2.689,0,4.871,2.182,4.871,4.872C20.871,18.689,18.689,20.871,16,20.871z"></path><title>Link options.</title></g></g></g></g><!--z-index:26--><g   id="j_82" ><path  stroke="#cccccc" d="M 599 1043 L 899 1043" id="v-1130" stroke-width="2" stroke-dasharray="8 8" fill="none" style="opacity: 1;"></path><path  fill="black" stroke="black" d="M 0 0 0 0" transform="matrix(1,0,0,1,599,1043)"></path><path  fill="#cccccc" stroke="#cccccc" d="M 20 0 L 0 10 L 20 20 z" id="v-1132" transform="matrix(-1,1.2246467991473532e-16,-1.2246467991473532e-16,-1,899,1053)" style="opacity: 1;"></path><path  d="M 599 1043 L 899 1043" id="v-1131" fill="none" style="cursor: auto; pointer-events: visiblepainted;"></path><g ><g id="v-1124"  label-idx="0" cursor="move" transform="matrix(1,0,0,1,749,1043)" style="cursor: default; opacity: 1;"><rect joint-selector="rect" id="v-1127" fill="#111111" rx="3" ry="3" pointer-events="none" width="111.5782699584961" height="90.74501419067383" transform="matrix(1,0,0,1,-56.6,-45.4)"></rect><text joint-selector="text" id="v-1126" font-size="24px" xml:space="preserve" y="0.8em" fill="#cccccc" text-anchor="middle" pointer-events="none" font-family="Open Sans, Tahoma, Arial" font-weight="normal" transform="matrix(1,0,0,1,0,-39.7)"><tspan dy="0" >Usa para</tspan><tspan dy="1.2em" x="0" >gestionar</tspan><tspan dy="1.2em" x="0" >compras</tspan></text></g><g id="v-1125"  label-idx="1" cursor="move" transform="matrix(1,0,0,1,739,1083.800048828125)" style="cursor: default; opacity: 1;"><rect joint-selector="rect" id="v-1129" fill="#ffffff" rx="3" ry="3"  width="0" height="0" transform="matrix(1,0,0,1,0,0)" display="none"></rect><text joint-selector="text" id="v-1128" fill="#000000" font-size="14" text-anchor="middle" pointer-events="none"></text></g></g><g  display="none" style="display: none;"></g><g  id="v-1134" display="none"><g  id="v-1122"><path  end="source" d="M 26 0 L 0 13 L 26 26 z"></path></g><g  id="v-1123"><path  end="target" d="M 26 0 L 0 13 L 26 26 z"></path></g></g><g  id="v-1133" display="none"><g  id="v-1121" transform="translate(639, 1043) "><g  event="remove"><circle r="11"></circle><path transform="scale(.8) translate(-16, -16)" d="M24.778,21.419 19.276,15.917 24.777,10.415 21.949,7.585 16.447,13.087 10.945,7.585 8.117,10.415 13.618,15.917 8.116,21.419 10.946,24.248 16.447,18.746 21.948,24.248z"></path><title>Remove link.</title></g><g  event="link:options"><circle r="11" transform="translate(25)"></circle><path fill="white" transform="scale(.55) translate(29, -16)" d="M31.229,17.736c0.064-0.571,0.104-1.148,0.104-1.736s-0.04-1.166-0.104-1.737l-4.377-1.557c-0.218-0.716-0.504-1.401-0.851-2.05l1.993-4.192c-0.725-0.91-1.549-1.734-2.458-2.459l-4.193,1.994c-0.647-0.347-1.334-0.632-2.049-0.849l-1.558-4.378C17.165,0.708,16.588,0.667,16,0.667s-1.166,0.041-1.737,0.105L12.707,5.15c-0.716,0.217-1.401,0.502-2.05,0.849L6.464,4.005C5.554,4.73,4.73,5.554,4.005,6.464l1.994,4.192c-0.347,0.648-0.632,1.334-0.849,2.05l-4.378,1.557C0.708,14.834,0.667,15.412,0.667,16s0.041,1.165,0.105,1.736l4.378,1.558c0.217,0.715,0.502,1.401,0.849,2.049l-1.994,4.193c0.725,0.909,1.549,1.733,2.459,2.458l4.192-1.993c0.648,0.347,1.334,0.633,2.05,0.851l1.557,4.377c0.571,0.064,1.148,0.104,1.737,0.104c0.588,0,1.165-0.04,1.736-0.104l1.558-4.377c0.715-0.218,1.399-0.504,2.049-0.851l4.193,1.993c0.909-0.725,1.733-1.549,2.458-2.458l-1.993-4.193c0.347-0.647,0.633-1.334,0.851-2.049L31.229,17.736zM16,20.871c-2.69,0-4.872-2.182-4.872-4.871c0-2.69,2.182-4.872,4.872-4.872c2.689,0,4.871,2.182,4.871,4.872C20.871,18.689,18.689,20.871,16,20.871z"></path><title>Link options.</title></g></g></g></g><!--z-index:27--><g   id="j_83" ><path  stroke="#cccccc" d="M 599 1550 L 969 1193" id="v-1147" stroke-width="2" stroke-dasharray="8 8" fill="none" style="opacity: 1;"></path><path  fill="black" stroke="black" d="M 0 0 0 0" transform="matrix(0.7193952976570458,-0.6946008967089882,0.6946008967089882,0.7193952976570458,599,1549.9000244140625)"></path><path  fill="#cccccc" stroke="#cccccc" d="M 20 0 L 0 10 L 20 20 z" id="v-1149" transform="matrix(-0.7193954826404286,0.6946007051224068,-0.6946007051224068,-0.7193954826404286,975.5860067995034,1200.1939926970551)" style="opacity: 1;"></path><path  d="M 599 1550 L 969 1193" id="v-1148" fill="none" style="cursor: auto; pointer-events: visiblepainted;"></path><g ><g id="v-1141"  label-idx="0" cursor="move" transform="matrix(1,0,0,1,784,1371.5)" style="cursor: default; opacity: 1;"><rect joint-selector="rect" id="v-1144" fill="#111111" rx="3" ry="3" pointer-events="none" width="198.52859497070312" height="61.94500732421875" transform="matrix(1,0,0,1,-98,-31)"></rect><text joint-selector="text" id="v-1143" font-size="24px" xml:space="preserve" y="0.8em" fill="#cccccc" text-anchor="middle" pointer-events="none" font-family="Open Sans, Tahoma, Arial" font-weight="normal" transform="matrix(1,0,0,1,0,-25.3)"><tspan dy="0" >Usa para aprobar</tspan><tspan dy="1.2em" x="0" >gastos y ver KPIs</tspan></text></g><g id="v-1142"  label-idx="1" cursor="move" transform="matrix(1,0,0,1,774,1397.9000244140625)" style="cursor: default; opacity: 1;"><rect joint-selector="rect" id="v-1146" fill="#ffffff" rx="3" ry="3"  width="0" height="0" transform="matrix(1,0,0,1,0,0)" display="none"></rect><text joint-selector="text" id="v-1145" fill="#000000" font-size="14" text-anchor="middle" pointer-events="none"></text></g></g><g  display="none" style="display: none;"></g><g  id="v-1151" display="none"><g  id="v-1139"><path  end="source" d="M 26 0 L 0 13 L 26 26 z"></path></g><g  id="v-1140"><path  end="target" d="M 26 0 L 0 13 L 26 26 z"></path></g></g><g  id="v-1150" display="none"><g  id="v-1138" transform="translate(627.7854404780039, 1522.2259398631152) "><g  event="remove"><circle r="11"></circle><path transform="scale(.8) translate(-16, -16)" d="M24.778,21.419 19.276,15.917 24.777,10.415 21.949,7.585 16.447,13.087 10.945,7.585 8.117,10.415 13.618,15.917 8.116,21.419 10.946,24.248 16.447,18.746 21.948,24.248z"></path><title>Remove link.</title></g><g  event="link:options"><circle r="11" transform="translate(25)"></circle><path fill="white" transform="scale(.55) translate(29, -16)" d="M31.229,17.736c0.064-0.571,0.104-1.148,0.104-1.736s-0.04-1.166-0.104-1.737l-4.377-1.557c-0.218-0.716-0.504-1.401-0.851-2.05l1.993-4.192c-0.725-0.91-1.549-1.734-2.458-2.459l-4.193,1.994c-0.647-0.347-1.334-0.632-2.049-0.849l-1.558-4.378C17.165,0.708,16.588,0.667,16,0.667s-1.166,0.041-1.737,0.105L12.707,5.15c-0.716,0.217-1.401,0.502-2.05,0.849L6.464,4.005C5.554,4.73,4.73,5.554,4.005,6.464l1.994,4.192c-0.347,0.648-0.632,1.334-0.849,2.05l-4.378,1.557C0.708,14.834,0.667,15.412,0.667,16s0.041,1.165,0.105,1.736l4.378,1.558c0.217,0.715,0.502,1.401,0.849,2.049l-1.994,4.193c0.725,0.909,1.549,1.733,2.459,2.458l4.192-1.993c0.648,0.347,1.334,0.633,2.05,0.851l1.557,4.377c0.571,0.064,1.148,0.104,1.737,0.104c0.588,0,1.165-0.04,1.736-0.104l1.558-4.377c0.715-0.218,1.399-0.504,2.049-0.851l4.193,1.993c0.909-0.725,1.733-1.549,2.458-2.458l-1.993-4.193c0.347-0.647,0.633-1.334,0.851-2.049L31.229,17.736zM16,20.871c-2.69,0-4.872-2.182-4.872-4.871c0-2.69,2.182-4.872,4.872-4.872c2.689,0,4.871,2.182,4.871,4.872C20.871,18.689,18.689,20.871,16,20.871z"></path><title>Link options.</title></g></g></g></g><!--z-index:28--><g   id="j_84" ><path  stroke="#cccccc" d="M 1312 893 L 1687 593" id="v-1164" stroke-width="2" stroke-dasharray="8 8" fill="none" style="opacity: 1;"></path><path  fill="black" stroke="black" d="M 0 0 0 0" transform="matrix(0.7808686753084834,-0.624695215222571,0.624695215222571,0.7808686753084834,1311.5,893)"></path><path  fill="#cccccc" stroke="#cccccc" d="M 20 0 L 0 10 L 20 20 z" id="v-1166" transform="matrix(-0.7808688416748546,0.6246950072646418,-0.6246950072646418,-0.7808688416748546,1692.7469226690823,600.8086865862896)" style="opacity: 1;"></path><path  d="M 1312 893 L 1687 593" id="v-1165" fill="none" style="cursor: auto; pointer-events: visiblepainted;"></path><g ><g id="v-1158"  label-idx="0" cursor="move" transform="matrix(1,0,0,1,1499.5,743)" style="cursor: default; opacity: 1;"><rect joint-selector="rect" id="v-1161" fill="#111111" rx="3" ry="3" pointer-events="none" width="191.64613342285156" height="61.94500732421875" transform="matrix(1,0,0,1,-95.6,-31)"></rect><text joint-selector="text" id="v-1160" font-size="24px" xml:space="preserve" y="0.8em" fill="#cccccc" text-anchor="middle" pointer-events="none" font-family="Open Sans, Tahoma, Arial" font-weight="normal" transform="matrix(1,0,0,1,0,-25.3)"><tspan dy="0" >Valida facturas y</tspan><tspan dy="1.2em" x="0" >proveedores</tspan></text></g><g id="v-1159"  label-idx="1" cursor="move" transform="matrix(1,0,0,1,1489.5,769.4000244140625)" style="cursor: default; opacity: 1;"><rect joint-selector="rect" id="v-1163" fill="#ffffff" rx="3" ry="3"  width="0" height="0" transform="matrix(1,0,0,1,0,0)" display="none"></rect><text joint-selector="text" id="v-1162" fill="#000000" font-size="14" text-anchor="middle" pointer-events="none"></text></g></g><g  display="none" style="display: none;"></g><g  id="v-1168" display="none"><g  id="v-1156"><path  end="source" d="M 26 0 L 0 13 L 26 26 z"></path></g><g  id="v-1157"><path  end="target" d="M 26 0 L 0 13 L 26 26 z"></path></g></g><g  id="v-1167" display="none"><g  id="v-1155" transform="translate(1343.2347523777214, 868.0121980978231) "><g  event="remove"><circle r="11"></circle><path transform="scale(.8) translate(-16, -16)" d="M24.778,21.419 19.276,15.917 24.777,10.415 21.949,7.585 16.447,13.087 10.945,7.585 8.117,10.415 13.618,15.917 8.116,21.419 10.946,24.248 16.447,18.746 21.948,24.248z"></path><title>Remove link.</title></g><g  event="link:options"><circle r="11" transform="translate(25)"></circle><path fill="white" transform="scale(.55) translate(29, -16)" d="M31.229,17.736c0.064-0.571,0.104-1.148,0.104-1.736s-0.04-1.166-0.104-1.737l-4.377-1.557c-0.218-0.716-0.504-1.401-0.851-2.05l1.993-4.192c-0.725-0.91-1.549-1.734-2.458-2.459l-4.193,1.994c-0.647-0.347-1.334-0.632-2.049-0.849l-1.558-4.378C17.165,0.708,16.588,0.667,16,0.667s-1.166,0.041-1.737,0.105L12.707,5.15c-0.716,0.217-1.401,0.502-2.05,0.849L6.464,4.005C5.554,4.73,4.73,5.554,4.005,6.464l1.994,4.192c-0.347,0.648-0.632,1.334-0.849,2.05l-4.378,1.557C0.708,14.834,0.667,15.412,0.667,16s0.041,1.165,0.105,1.736l4.378,1.558c0.217,0.715,0.502,1.401,0.849,2.049l-1.994,4.193c0.725,0.909,1.549,1.733,2.459,2.458l4.192-1.993c0.648,0.347,1.334,0.633,2.05,0.851l1.557,4.377c0.571,0.064,1.148,0.104,1.737,0.104c0.588,0,1.165-0.04,1.736-0.104l1.558-4.377c0.715-0.218,1.399-0.504,2.049-0.851l4.193,1.993c0.909-0.725,1.733-1.549,2.458-2.458l-1.993-4.193c0.347-0.647,0.633-1.334,0.851-2.049L31.229,17.736zM16,20.871c-2.69,0-4.872-2.182-4.872-4.871c0-2.69,2.182-4.872,4.872-4.872c2.689,0,4.871,2.182,4.871,4.872C20.871,18.689,18.689,20.871,16,20.871z"></path><title>Link options.</title></g></g></g></g><!--z-index:29--><g   id="j_85" ><path  stroke="#cccccc" d="M 1349 1043 L 1649 1043" id="v-1181" stroke-width="2" stroke-dasharray="8 8" fill="none" style="opacity: 1;"></path><path  fill="black" stroke="black" d="M 0 0 0 0" transform="matrix(1,0,0,1,1349,1043)"></path><path  fill="#cccccc" stroke="#cccccc" d="M 20 0 L 0 10 L 20 20 z" id="v-1183" transform="matrix(-1,1.2246467991473532e-16,-1.2246467991473532e-16,-1,1649,1053)" style="opacity: 1;"></path><path  d="M 1349 1043 L 1649 1043" id="v-1182" fill="none" style="cursor: auto; pointer-events: visiblepainted;"></path><g ><g id="v-1175"  label-idx="0" cursor="move" transform="matrix(1,0,0,1,1499,1043)" style="cursor: default; opacity: 1;"><rect joint-selector="rect" id="v-1178" fill="#111111" rx="3" ry="3" pointer-events="none" width="177.09005737304688" height="90.74501419067383" transform="matrix(1,0,0,1,-86.3,-45.4)"></rect><text joint-selector="text" id="v-1177" font-size="24px" xml:space="preserve" y="0.8em" fill="#cccccc" text-anchor="middle" pointer-events="none" font-family="Open Sans, Tahoma, Arial" font-weight="normal" transform="matrix(1,0,0,1,0,-39.7)"><tspan dy="0" >Despacha</tspan><tspan dy="1.2em" x="0" >notificaciones y</tspan><tspan dy="1.2em" x="0" >OCs</tspan></text></g><g id="v-1176"  label-idx="1" cursor="move" transform="matrix(1,0,0,1,1489,1083.800048828125)" style="cursor: default; opacity: 1;"><rect joint-selector="rect" id="v-1180" fill="#ffffff" rx="3" ry="3"  width="0" height="0" transform="matrix(1,0,0,1,0,0)" display="none"></rect><text joint-selector="text" id="v-1179" fill="#000000" font-size="14" text-anchor="middle" pointer-events="none"></text></g></g><g  display="none" style="display: none;"></g><g  id="v-1185" display="none"><g  id="v-1173"><path  end="source" d="M 26 0 L 0 13 L 26 26 z"></path></g><g  id="v-1174"><path  end="target" d="M 26 0 L 0 13 L 26 26 z"></path></g></g><g  id="v-1184" display="none"><g  id="v-1172" transform="translate(1389, 1043) "><g  event="remove"><circle r="11"></circle><path transform="scale(.8) translate(-16, -16)" d="M24.778,21.419 19.276,15.917 24.777,10.415 21.949,7.585 16.447,13.087 10.945,7.585 8.117,10.415 13.618,15.917 8.116,21.419 10.946,24.248 16.447,18.746 21.948,24.248z"></path><title>Remove link.</title></g><g  event="link:options"><circle r="11" transform="translate(25)"></circle><path fill="white" transform="scale(.55) translate(29, -16)" d="M31.229,17.736c0.064-0.571,0.104-1.148,0.104-1.736s-0.04-1.166-0.104-1.737l-4.377-1.557c-0.218-0.716-0.504-1.401-0.851-2.05l1.993-4.192c-0.725-0.91-1.549-1.734-2.458-2.459l-4.193,1.994c-0.647-0.347-1.334-0.632-2.049-0.849l-1.558-4.378C17.165,0.708,16.588,0.667,16,0.667s-1.166,0.041-1.737,0.105L12.707,5.15c-0.716,0.217-1.401,0.502-2.05,0.849L6.464,4.005C5.554,4.73,4.73,5.554,4.005,6.464l1.994,4.192c-0.347,0.648-0.632,1.334-0.849,2.05l-4.378,1.557C0.708,14.834,0.667,15.412,0.667,16s0.041,1.165,0.105,1.736l4.378,1.558c0.217,0.715,0.502,1.401,0.849,2.049l-1.994,4.193c0.725,0.909,1.549,1.733,2.459,2.458l4.192-1.993c0.648,0.347,1.334,0.633,2.05,0.851l1.557,4.377c0.571,0.064,1.148,0.104,1.737,0.104c0.588,0,1.165-0.04,1.736-0.104l1.558-4.377c0.715-0.218,1.399-0.504,2.049-0.851l4.193,1.993c0.909-0.725,1.733-1.549,2.458-2.458l-1.993-4.193c0.347-0.647,0.633-1.334,0.851-2.049L31.229,17.736zM16,20.871c-2.69,0-4.872-2.182-4.872-4.871c0-2.69,2.182-4.872,4.872-4.872c2.689,0,4.871,2.182,4.871,4.872C20.871,18.689,18.689,20.871,16,20.871z"></path><title>Link options.</title></g></g></g></g><!--z-index:30--><g   id="j_86" ><path  stroke="#cccccc" d="M 1312 1193 L 1687 1493" id="v-1198" stroke-width="2" stroke-dasharray="8 8" fill="none" style="opacity: 1;"></path><path  fill="black" stroke="black" d="M 0 0 0 0" transform="matrix(0.7808688000832672,0.624695059254128,-0.624695059254128,0.7808688000832672,1311.5,1193)"></path><path  fill="#cccccc" stroke="#cccccc" d="M 20 0 L 0 10 L 20 20 z" id="v-1200" transform="matrix(-0.7808688416748548,-0.6246950072646416,0.6246950072646416,-0.7808688416748548,1680.2530225237897,1500.8086902472073)" style="opacity: 1;"></path><path  d="M 1312 1193 L 1687 1493" id="v-1199" fill="none" style="cursor: auto; pointer-events: visiblepainted;"></path><g ><g id="v-1192"  label-idx="0" cursor="move" transform="matrix(1,0,0,1,1499.5,1343)" style="cursor: default; opacity: 1;"><rect joint-selector="rect" id="v-1195" fill="#111111" rx="3" ry="3" pointer-events="none" width="198.9937744140625" height="61.94500732421875" transform="matrix(1,0,0,1,-97.9,-31)"></rect><text joint-selector="text" id="v-1194" font-size="24px" xml:space="preserve" y="0.8em" fill="#cccccc" text-anchor="middle" pointer-events="none" font-family="Open Sans, Tahoma, Arial" font-weight="normal" transform="matrix(1,0,0,1,0,-25.3)"><tspan dy="0" >Procesa pagos de</tspan><tspan dy="1.2em" x="0" >suscripción</tspan></text></g><g id="v-1193"  label-idx="1" cursor="move" transform="matrix(1,0,0,1,1489.5,1369.4000244140625)" style="cursor: default; opacity: 1;"><rect joint-selector="rect" id="v-1197" fill="#ffffff" rx="3" ry="3"  width="0" height="0" transform="matrix(1,0,0,1,0,0)" display="none"></rect><text joint-selector="text" id="v-1196" fill="#000000" font-size="14" text-anchor="middle" pointer-events="none"></text></g></g><g  display="none" style="display: none;"></g><g  id="v-1202" display="none"><g  id="v-1190"><path  end="source" d="M 26 0 L 0 13 L 26 26 z"></path></g><g  id="v-1191"><path  end="target" d="M 26 0 L 0 13 L 26 26 z"></path></g></g><g  id="v-1201" display="none"><g  id="v-1189" transform="translate(1343.2347523777214, 1217.9878019021771) "><g  event="remove"><circle r="11"></circle><path transform="scale(.8) translate(-16, -16)" d="M24.778,21.419 19.276,15.917 24.777,10.415 21.949,7.585 16.447,13.087 10.945,7.585 8.117,10.415 13.618,15.917 8.116,21.419 10.946,24.248 16.447,18.746 21.948,24.248z"></path><title>Remove link.</title></g><g  event="link:options"><circle r="11" transform="translate(25)"></circle><path fill="white" transform="scale(.55) translate(29, -16)" d="M31.229,17.736c0.064-0.571,0.104-1.148,0.104-1.736s-0.04-1.166-0.104-1.737l-4.377-1.557c-0.218-0.716-0.504-1.401-0.851-2.05l1.993-4.192c-0.725-0.91-1.549-1.734-2.458-2.459l-4.193,1.994c-0.647-0.347-1.334-0.632-2.049-0.849l-1.558-4.378C17.165,0.708,16.588,0.667,16,0.667s-1.166,0.041-1.737,0.105L12.707,5.15c-0.716,0.217-1.401,0.502-2.05,0.849L6.464,4.005C5.554,4.73,4.73,5.554,4.005,6.464l1.994,4.192c-0.347,0.648-0.632,1.334-0.849,2.05l-4.378,1.557C0.708,14.834,0.667,15.412,0.667,16s0.041,1.165,0.105,1.736l4.378,1.558c0.217,0.715,0.502,1.401,0.849,2.049l-1.994,4.193c0.725,0.909,1.549,1.733,2.459,2.458l4.192-1.993c0.648,0.347,1.334,0.633,2.05,0.851l1.557,4.377c0.571,0.064,1.148,0.104,1.737,0.104c0.588,0,1.165-0.04,1.736-0.104l1.558-4.377c0.715-0.218,1.399-0.504,2.049-0.851l4.193,1.993c0.909-0.725,1.733-1.549,2.458-2.458l-1.993-4.193c0.347-0.647,0.633-1.334,0.851-2.049L31.229,17.736zM16,20.871c-2.69,0-4.872-2.182-4.872-4.871c0-2.69,2.182-4.872,4.872-4.872c2.689,0,4.871,2.182,4.871,4.872C20.871,18.689,18.689,20.871,16,20.871z"></path><title>Link options.</title></g></g></g></g><!--z-index:31--><!--z-index:32--><!--z-index:33--><!--z-index:34--><!--z-index:35--><!--z-index:36--><!--z-index:37--><!--z-index:38--><!--z-index:39--><!--z-index:40--><!--z-index:41--><!--z-index:42--><!--z-index:43--><!--z-index:44--><!--z-index:45--><!--z-index:46--><!--z-index:47--><!--z-index:48--><!--z-index:49--><!--z-index:50--><!--z-index:51--><!--z-index:52--><!--z-index:53--><!--z-index:54--><!--z-index:55--><!--z-index:56--><!--z-index:57--><!--z-index:58--><!--z-index:59--><!--z-index:60--><!--z-index:61--><!--z-index:62--><!--z-index:63--><!--z-index:64--><!--z-index:65--><!--z-index:66--><!--z-index:67--></g><g ></g><g ></g><g ></g></g></svg>