<svg width="96" height="27" viewBox="0 0 96 27" fill="none" xmlns="http://www.w3.org/2000/svg">
<path d="M90.9075 25.9115V7.43235H95.8371V25.9115H90.9075ZM93.3723 5.2209C92.6576 5.2209 92.0374 4.96533 91.5066 4.45941C90.9969 3.93262 90.7394 3.31717 90.7394 2.60784C90.7394 1.89851 90.9969 1.29349 91.5066 0.787568C92.0374 0.260784 92.6576 0 93.3723 0C94.087 0 94.6967 0.260784 95.2064 0.787568C95.7372 1.29349 96 1.89851 96 2.60784C96 3.31717 95.7372 3.93262 95.2064 4.45941C94.6967 4.96533 94.087 5.2209 93.3723 5.2209Z" fill="white"/>
<path d="M0 25.9115V15.1672C0 13.7485 0.346855 12.4498 1.03531 11.2659C1.72376 10.0819 2.71703 9.1483 3.99934 8.46504C5.30793 7.75571 6.88455 7.40105 8.71867 7.40105C9.60158 7.40105 10.4109 7.50536 11.1467 7.7192C11.9087 7.90697 12.6129 8.19383 13.2541 8.56936C13.8952 8.9501 14.4575 9.39865 14.9358 9.91501H14.9726C15.4718 9.39344 16.0447 8.94489 16.6858 8.56936C17.327 8.18861 18.0312 7.90697 18.7932 7.7192C19.5553 7.50536 20.3751 7.40105 21.258 7.40105C23.0921 7.40105 24.653 7.75571 25.9405 8.46504C27.2491 9.1483 28.2529 10.0871 28.9414 11.2659C29.6298 12.4498 29.9767 13.7485 29.9767 15.1672V25.9115H25.0787V15.1672C25.0787 14.5048 24.9 13.8998 24.5426 13.3574C24.2115 12.8149 23.7543 12.3768 23.1867 12.043C22.6139 11.7144 21.9727 11.5475 21.258 11.5475C20.5433 11.5475 19.9231 11.7144 19.3293 12.043C18.7564 12.3716 18.294 12.8097 17.9366 13.3574C17.6055 13.8998 17.4373 14.5048 17.4373 15.1672V25.9115H12.5393V15.1672C12.5393 14.5048 12.3607 13.8998 12.0033 13.3574C11.6722 12.8149 11.215 12.3768 10.6474 12.043C10.0746 11.7144 9.4334 11.5475 8.71867 11.5475C8.00394 11.5475 7.38381 11.7144 6.78995 12.043C6.21711 12.3716 5.75464 12.8097 5.39727 13.3574C5.06618 13.8998 4.89801 14.5048 4.89801 15.1672V25.9115H0Z" fill="white"/>
<path d="M86.6875 7.43756V18.1819C86.6875 19.6005 86.3406 20.8992 85.6522 22.0832C84.9637 23.2672 83.9704 24.2008 82.6881 24.884C81.3795 25.5933 79.8029 25.948 77.9688 25.948C77.0859 25.948 76.2766 25.8437 75.5408 25.6299C74.7788 25.4421 74.0745 25.1552 73.4334 24.7797C72.7922 24.399 72.2299 23.9504 71.7517 23.4341H71.7149C71.2156 23.9556 70.6428 24.4042 70.0016 24.7797C69.3605 25.1604 68.6563 25.4421 67.8942 25.6299C67.1322 25.8437 66.3124 25.948 65.4295 25.948C63.5953 25.948 62.0345 25.5933 60.7469 24.884C59.4383 24.2008 58.4345 23.2619 57.7461 22.0832C57.0576 20.8992 56.7108 19.6005 56.7108 18.1819V7.43756H61.6088V18.1819C61.6088 18.8443 61.7875 19.4493 62.1448 19.9917C62.4759 20.5341 62.9332 20.9723 63.5007 21.3061C64.0736 21.6346 64.7147 21.8015 65.4295 21.8015C66.1442 21.8015 66.7643 21.6346 67.3582 21.3061C67.931 20.9775 68.3935 20.5394 68.7509 19.9917C69.0819 19.4493 69.2501 18.8443 69.2501 18.1819V7.43756H74.1481V18.1819C74.1481 18.8443 74.3268 19.4493 74.6842 19.9917C75.0153 20.5341 75.4725 20.9723 76.0401 21.3061C76.6129 21.6346 77.2541 21.8015 77.9688 21.8015C78.6835 21.8015 79.3036 21.6346 79.8975 21.3061C80.4703 20.9775 80.9328 20.5394 81.2902 19.9917C81.6213 19.4493 81.7895 18.8443 81.7895 18.1819V7.43756H86.6875Z" fill="white"/>
<path d="M52.8218 16.4816C52.7062 11.3806 48.5124 7.27589 43.3411 7.27589C38.1698 7.27589 33.8499 11.4954 33.8499 16.6954C33.8499 21.8954 38.1015 26.1149 43.3411 26.1149C45.3329 26.1149 47.1775 25.5047 48.7016 24.4668V25.9167H52.8323V16.4816H52.8218ZM43.3411 22.0102C40.3823 22.0102 37.9806 19.6266 37.9806 16.6902C37.9806 13.7538 40.3823 11.3702 43.3411 11.3702C46.2999 11.3702 48.7016 13.7538 48.7016 16.6902C48.7016 19.6266 46.2999 22.0102 43.3411 22.0102Z" fill="white"/>
</svg>
